<?xml version="1.0" encoding="utf-8"?>
<!-- Generator: Adobe Illustrator 27.5.0, SVG Export Plug-In . SVG Version: 6.00 Build 0)  -->
<svg version="1.1" xmlns="http://www.w3.org/2000/svg" xmlns:xlink="http://www.w3.org/1999/xlink" x="0px" y="0px"
	 viewBox="0 0 500 500" style="enable-background:new 0 0 500 500;" xml:space="preserve">
<g id="Floor">
	<path id="XMLID_18698_" style="fill:#F0F0F0;" d="M119.822,411.549c70.781,36.977,185.54,36.977,256.321,0.001
		c70.781-36.978,70.781-96.928,0-133.905c-70.781-36.977-185.54-36.977-256.322-0.001C49.041,314.62,49.041,374.572,119.822,411.549
		z"/>
</g>
<g id="Shadows">
	<path id="XMLID_18540_" style="fill:#E0E0E0;" d="M152.563,369.496l61.529,35.524c0.957,0.552,2.508,0.552,3.464,0l92.706-53.626
		c0.957-0.552,0.957-1.448,0-2l-61.529-35.524c-0.957-0.552-2.507-0.552-3.464,0l-92.706,53.625
		C151.606,368.048,151.606,368.943,152.563,369.496z"/>
	<g id="XMLID_18621_">
		<path id="XMLID_18622_" style="fill:#E0E0E0;" d="M110.197,320.959c15.967,7.611,41.855,7.611,57.822,0
			c15.967-7.609,15.967-19.948,0-27.559c-15.967-7.609-41.854-7.609-57.822,0C94.23,301.011,94.23,313.35,110.197,320.959z"/>
	</g>
	<path id="XMLID_18534_" style="fill:#E0E0E0;" d="M330.314,360.579c15.771,7.518,41.341,7.518,57.112,0
		c15.771-7.516,15.771-19.703,0-27.221c-15.771-7.516-41.34-7.516-57.112,0C314.543,340.876,314.543,353.063,330.314,360.579z"/>
</g>
<g id="Charts_2">
	<g id="XMLID_18496_">
		
			<linearGradient id="XMLID_00000026128925750772074010000008584613086531257476_" gradientUnits="userSpaceOnUse" x1="100.7757" y1="184.413" x2="128.8583" y2="227.6169">
			<stop  offset="0" style="stop-color:#E6E6E6"/>
			<stop  offset="1" style="stop-color:#FFFFFF;stop-opacity:0"/>
		</linearGradient>
		<path id="XMLID_18636_" style="fill:url(#XMLID_00000026128925750772074010000008584613086531257476_);" d="M30.028,275.146
			c4.639-2.787,5.211-44.999,20.643-53.633c15.432-8.634,10.039,29.988,25.803,20.857c14.999-8.688,10.409-53.757,25.806-62.573
			c15.397-8.816,10.14,35.24,25.804,26.817c13.622-7.326,12.469-24.864,21.391-32.614c8.922-7.75,10.965,9.28,22.205,3.149
			s1.681-39.929,25.571-53.721v64.365l-167.225,97.18L30.028,275.146z"/>
		<g id="XMLID_18635_">
			<path style="fill:#E0E0E0;" d="M30.029,275.897c-0.254,0-0.503-0.13-0.643-0.363c-0.213-0.355-0.098-0.816,0.257-1.029
				c1.351-0.811,2.577-7.21,3.876-13.984c2.743-14.309,6.499-33.905,16.787-39.661c2.487-1.392,4.613-1.717,6.498-0.996
				c3.717,1.42,5.54,6.734,7.303,11.872c1.665,4.852,3.385,9.868,6.499,11.032c1.507,0.563,3.306,0.222,5.493-1.044
				c7.153-4.144,9.789-17.52,12.339-30.455c2.665-13.525,5.421-27.511,13.47-32.12c2.284-1.308,4.345-1.606,6.125-0.887
				c4.011,1.622,5.829,7.894,7.754,14.534c1.766,6.09,3.591,12.387,7.034,13.833c1.382,0.579,2.988,0.36,4.91-0.673
				c7.583-4.078,10.447-11.439,13.217-18.559c2.109-5.421,4.101-10.542,8.037-13.961c4.919-4.271,8.091-1.634,11.159,0.919
				c3.074,2.559,5.978,4.975,11.179,2.139c4.257-2.322,5.375-9.362,6.669-17.513c1.97-12.408,4.422-27.849,18.886-36.2
				c0.357-0.206,0.817-0.085,1.024,0.274c0.207,0.359,0.084,0.817-0.274,1.024c-13.844,7.993-16.234,23.043-18.154,35.136
				c-1.356,8.542-2.528,15.919-7.432,18.594c-6.096,3.326-9.846,0.205-12.857-2.302c-3.053-2.542-5.26-4.377-9.216-0.939
				c-3.656,3.176-5.583,8.129-7.622,13.373c-2.868,7.372-5.834,14.997-13.905,19.336c-2.312,1.244-4.398,1.492-6.2,0.734
				c-4.103-1.723-6.03-8.37-7.894-14.798c-1.741-6.003-3.541-12.211-6.876-13.561c-1.349-0.545-2.926-0.285-4.817,0.798
				c-7.455,4.269-10.144,17.913-12.744,31.108c-2.734,13.874-5.317,26.979-13.059,31.463c-2.6,1.505-4.814,1.883-6.771,1.151
				c-3.777-1.412-5.615-6.768-7.392-11.95c-1.651-4.812-3.358-9.787-6.419-10.958c-1.446-0.554-3.156-0.256-5.23,0.904
				c-9.678,5.415-13.359,24.616-16.046,38.635c-1.742,9.089-2.737,13.883-4.577,14.987
				C30.293,275.862,30.161,275.897,30.029,275.897z"/>
		</g>
		<g id="XMLID_18616_">
			<g>
				<path style="fill:#FAFAFA;" d="M102.279,180.747c-0.175,0-0.316-0.142-0.316-0.316v-0.633c0-0.175,0.142-0.316,0.316-0.316
					c0.175,0,0.316,0.142,0.316,0.316v0.633C102.596,180.605,102.454,180.747,102.279,180.747z"/>
			</g>
			<g>
				<path style="fill:#FAFAFA;" d="M102.279,241.713c-0.175,0-0.316-0.142-0.316-0.316v-1.27c0-0.175,0.142-0.316,0.316-0.316
					c0.175,0,0.316,0.142,0.316,0.316v1.27C102.596,241.571,102.454,241.713,102.279,241.713z M102.279,239.173
					c-0.175,0-0.316-0.142-0.316-0.316v-1.27c0-0.175,0.142-0.316,0.316-0.316c0.175,0,0.316,0.142,0.316,0.316v1.27
					C102.596,239.031,102.454,239.173,102.279,239.173z M102.279,236.633c-0.175,0-0.316-0.142-0.316-0.316v-1.271
					c0-0.175,0.142-0.316,0.316-0.316c0.175,0,0.316,0.142,0.316,0.316v1.271C102.596,236.491,102.454,236.633,102.279,236.633z
					 M102.279,234.092c-0.175,0-0.316-0.142-0.316-0.316v-1.27c0-0.175,0.142-0.316,0.316-0.316c0.175,0,0.316,0.142,0.316,0.316
					v1.27C102.596,233.951,102.454,234.092,102.279,234.092z M102.279,231.552c-0.175,0-0.316-0.142-0.316-0.316v-1.27
					c0-0.175,0.142-0.316,0.316-0.316c0.175,0,0.316,0.142,0.316,0.316v1.27C102.596,231.411,102.454,231.552,102.279,231.552z
					 M102.279,229.012c-0.175,0-0.316-0.142-0.316-0.316v-1.27c0-0.175,0.142-0.316,0.316-0.316c0.175,0,0.316,0.142,0.316,0.316
					v1.27C102.596,228.87,102.454,229.012,102.279,229.012z M102.279,226.472c-0.175,0-0.316-0.142-0.316-0.316v-1.27
					c0-0.175,0.142-0.316,0.316-0.316c0.175,0,0.316,0.142,0.316,0.316v1.27C102.596,226.33,102.454,226.472,102.279,226.472z
					 M102.279,223.931c-0.175,0-0.316-0.142-0.316-0.316v-1.27c0-0.175,0.142-0.316,0.316-0.316c0.175,0,0.316,0.142,0.316,0.316
					v1.27C102.596,223.79,102.454,223.931,102.279,223.931z M102.279,221.391c-0.175,0-0.316-0.142-0.316-0.316v-1.27
					c0-0.175,0.142-0.316,0.316-0.316c0.175,0,0.316,0.142,0.316,0.316v1.27C102.596,221.249,102.454,221.391,102.279,221.391z
					 M102.279,218.851c-0.175,0-0.316-0.142-0.316-0.316v-1.27c0-0.175,0.142-0.316,0.316-0.316c0.175,0,0.316,0.142,0.316,0.316
					v1.27C102.596,218.709,102.454,218.851,102.279,218.851z M102.279,216.311c-0.175,0-0.316-0.142-0.316-0.316v-1.27
					c0-0.175,0.142-0.316,0.316-0.316c0.175,0,0.316,0.142,0.316,0.316v1.27C102.596,216.169,102.454,216.311,102.279,216.311z
					 M102.279,213.77c-0.175,0-0.316-0.142-0.316-0.316v-1.271c0-0.175,0.142-0.316,0.316-0.316c0.175,0,0.316,0.142,0.316,0.316
					v1.271C102.596,213.629,102.454,213.77,102.279,213.77z M102.279,211.23c-0.175,0-0.316-0.142-0.316-0.316v-1.27
					c0-0.175,0.142-0.316,0.316-0.316c0.175,0,0.316,0.142,0.316,0.316v1.27C102.596,211.088,102.454,211.23,102.279,211.23z
					 M102.279,208.69c-0.175,0-0.316-0.142-0.316-0.316v-1.271c0-0.175,0.142-0.316,0.316-0.316c0.175,0,0.316,0.142,0.316,0.316
					v1.271C102.596,208.548,102.454,208.69,102.279,208.69z M102.279,206.149c-0.175,0-0.316-0.142-0.316-0.316v-1.27
					c0-0.175,0.142-0.316,0.316-0.316c0.175,0,0.316,0.142,0.316,0.316v1.27C102.596,206.008,102.454,206.149,102.279,206.149z
					 M102.279,203.609c-0.175,0-0.316-0.142-0.316-0.316v-1.27c0-0.175,0.142-0.316,0.316-0.316c0.175,0,0.316,0.142,0.316,0.316
					v1.27C102.596,203.468,102.454,203.609,102.279,203.609z M102.279,201.069c-0.175,0-0.316-0.142-0.316-0.316v-1.27
					c0-0.175,0.142-0.316,0.316-0.316c0.175,0,0.316,0.142,0.316,0.316v1.27C102.596,200.927,102.454,201.069,102.279,201.069z
					 M102.279,198.529c-0.175,0-0.316-0.142-0.316-0.316v-1.27c0-0.175,0.142-0.316,0.316-0.316c0.175,0,0.316,0.142,0.316,0.316
					v1.27C102.596,198.387,102.454,198.529,102.279,198.529z M102.279,195.988c-0.175,0-0.316-0.142-0.316-0.316v-1.27
					c0-0.175,0.142-0.316,0.316-0.316c0.175,0,0.316,0.142,0.316,0.316v1.27C102.596,195.847,102.454,195.988,102.279,195.988z
					 M102.279,193.448c-0.175,0-0.316-0.142-0.316-0.316v-1.27c0-0.175,0.142-0.316,0.316-0.316c0.175,0,0.316,0.142,0.316,0.316
					v1.27C102.596,193.307,102.454,193.448,102.279,193.448z M102.279,190.908c-0.175,0-0.316-0.142-0.316-0.316v-1.27
					c0-0.175,0.142-0.316,0.316-0.316c0.175,0,0.316,0.142,0.316,0.316v1.27C102.596,190.767,102.454,190.908,102.279,190.908z
					 M102.279,188.368c-0.175,0-0.316-0.142-0.316-0.316v-1.27c0-0.175,0.142-0.316,0.316-0.316c0.175,0,0.316,0.142,0.316,0.316
					v1.27C102.596,188.226,102.454,188.368,102.279,188.368z M102.279,185.828c-0.175,0-0.316-0.142-0.316-0.316v-1.27
					c0-0.175,0.142-0.316,0.316-0.316c0.175,0,0.316,0.142,0.316,0.316v1.27C102.596,185.686,102.454,185.828,102.279,185.828z
					 M102.279,183.287c-0.175,0-0.316-0.142-0.316-0.316v-1.27c0-0.175,0.142-0.316,0.316-0.316c0.175,0,0.316,0.142,0.316,0.316
					v1.27C102.596,183.145,102.454,183.287,102.279,183.287z"/>
			</g>
			<g>
				<path style="fill:#FAFAFA;" d="M102.279,243.617c-0.175,0-0.316-0.142-0.316-0.316v-0.633c0-0.175,0.142-0.316,0.316-0.316
					c0.175,0,0.316,0.142,0.316,0.316v0.633C102.596,243.475,102.454,243.617,102.279,243.617z"/>
			</g>
		</g>
		<g id="XMLID_18550_">
			<g>
				<path style="fill:#FAFAFA;" d="M152.543,173.278c-0.175,0-0.316-0.142-0.316-0.316v-0.633c0-0.175,0.142-0.316,0.316-0.316
					c0.175,0,0.316,0.142,0.316,0.316v0.633C152.86,173.137,152.718,173.278,152.543,173.278z"/>
			</g>
			<g>
				<path style="fill:#FAFAFA;" d="M152.543,212.161c-0.175,0-0.316-0.142-0.316-0.316v-1.296c0-0.175,0.142-0.316,0.316-0.316
					c0.175,0,0.316,0.142,0.316,0.316v1.296C152.86,212.019,152.718,212.161,152.543,212.161z M152.543,209.569
					c-0.175,0-0.316-0.142-0.316-0.316v-1.296c0-0.175,0.142-0.316,0.316-0.316c0.175,0,0.316,0.142,0.316,0.316v1.296
					C152.86,209.427,152.718,209.569,152.543,209.569z M152.543,206.977c-0.175,0-0.316-0.142-0.316-0.316v-1.296
					c0-0.175,0.142-0.316,0.316-0.316c0.175,0,0.316,0.142,0.316,0.316v1.296C152.86,206.835,152.718,206.977,152.543,206.977z
					 M152.543,204.384c-0.175,0-0.316-0.142-0.316-0.316v-1.296c0-0.175,0.142-0.316,0.316-0.316c0.175,0,0.316,0.142,0.316,0.316
					v1.296C152.86,204.243,152.718,204.384,152.543,204.384z M152.543,201.792c-0.175,0-0.316-0.142-0.316-0.316v-1.296
					c0-0.175,0.142-0.316,0.316-0.316c0.175,0,0.316,0.142,0.316,0.316v1.296C152.86,201.65,152.718,201.792,152.543,201.792z
					 M152.543,199.2c-0.175,0-0.316-0.142-0.316-0.316v-1.296c0-0.175,0.142-0.316,0.316-0.316c0.175,0,0.316,0.142,0.316,0.316
					v1.296C152.86,199.058,152.718,199.2,152.543,199.2z M152.543,196.608c-0.175,0-0.316-0.142-0.316-0.316v-1.296
					c0-0.175,0.142-0.316,0.316-0.316c0.175,0,0.316,0.142,0.316,0.316v1.296C152.86,196.466,152.718,196.608,152.543,196.608z
					 M152.543,194.016c-0.175,0-0.316-0.142-0.316-0.316v-1.296c0-0.175,0.142-0.316,0.316-0.316c0.175,0,0.316,0.142,0.316,0.316
					v1.296C152.86,193.874,152.718,194.016,152.543,194.016z M152.543,191.423c-0.175,0-0.316-0.142-0.316-0.316v-1.296
					c0-0.175,0.142-0.316,0.316-0.316c0.175,0,0.316,0.142,0.316,0.316v1.296C152.86,191.282,152.718,191.423,152.543,191.423z
					 M152.543,188.831c-0.175,0-0.316-0.142-0.316-0.316v-1.296c0-0.175,0.142-0.316,0.316-0.316c0.175,0,0.316,0.142,0.316,0.316
					v1.296C152.86,188.689,152.718,188.831,152.543,188.831z M152.543,186.239c-0.175,0-0.316-0.142-0.316-0.316v-1.296
					c0-0.175,0.142-0.316,0.316-0.316c0.175,0,0.316,0.142,0.316,0.316v1.296C152.86,186.098,152.718,186.239,152.543,186.239z
					 M152.543,183.647c-0.175,0-0.316-0.142-0.316-0.316v-1.296c0-0.175,0.142-0.316,0.316-0.316c0.175,0,0.316,0.142,0.316,0.316
					v1.296C152.86,183.505,152.718,183.647,152.543,183.647z M152.543,181.055c-0.175,0-0.316-0.142-0.316-0.316v-1.296
					c0-0.175,0.142-0.316,0.316-0.316c0.175,0,0.316,0.142,0.316,0.316v1.296C152.86,180.913,152.718,181.055,152.543,181.055z
					 M152.543,178.462c-0.175,0-0.316-0.142-0.316-0.316v-1.296c0-0.175,0.142-0.316,0.316-0.316c0.175,0,0.316,0.142,0.316,0.316
					v1.296C152.86,178.321,152.718,178.462,152.543,178.462z M152.543,175.87c-0.175,0-0.316-0.142-0.316-0.316v-1.296
					c0-0.175,0.142-0.316,0.316-0.316c0.175,0,0.316,0.142,0.316,0.316v1.296C152.86,175.729,152.718,175.87,152.543,175.87z"/>
			</g>
			<g>
				<path style="fill:#FAFAFA;" d="M152.543,214.09c-0.175,0-0.316-0.142-0.316-0.316v-0.633c0-0.175,0.142-0.316,0.316-0.316
					c0.175,0,0.316,0.142,0.316,0.316v0.633C152.86,213.949,152.718,214.09,152.543,214.09z"/>
			</g>
		</g>
		<g id="XMLID_18497_">
			<g>
				<path style="fill:#FAFAFA;" d="M53.125,222.091c-0.175,0-0.316-0.142-0.316-0.316v-0.633c0-0.175,0.142-0.316,0.316-0.316
					c0.175,0,0.316,0.142,0.316,0.316v0.633C53.442,221.949,53.3,222.091,53.125,222.091z"/>
			</g>
			<g>
				<path style="fill:#FAFAFA;" d="M53.125,263.81c-0.175,0-0.316-0.142-0.316-0.316v-1.304c0-0.175,0.142-0.317,0.316-0.317
					c0.175,0,0.316,0.142,0.316,0.317v1.304C53.442,263.668,53.3,263.81,53.125,263.81z M53.125,261.202
					c-0.175,0-0.316-0.142-0.316-0.316v-1.304c0-0.175,0.142-0.316,0.316-0.316c0.175,0,0.316,0.142,0.316,0.316v1.304
					C53.442,261.06,53.3,261.202,53.125,261.202z M53.125,258.595c-0.175,0-0.316-0.142-0.316-0.316v-1.304
					c0-0.175,0.142-0.316,0.316-0.316c0.175,0,0.316,0.142,0.316,0.316v1.304C53.442,258.453,53.3,258.595,53.125,258.595z
					 M53.125,255.987c-0.175,0-0.316-0.142-0.316-0.316v-1.304c0-0.175,0.142-0.316,0.316-0.316c0.175,0,0.316,0.142,0.316,0.316
					v1.304C53.442,255.846,53.3,255.987,53.125,255.987z M53.125,253.38c-0.175,0-0.316-0.142-0.316-0.316v-1.304
					c0-0.175,0.142-0.316,0.316-0.316c0.175,0,0.316,0.142,0.316,0.316v1.304C53.442,253.238,53.3,253.38,53.125,253.38z
					 M53.125,250.773c-0.175,0-0.316-0.142-0.316-0.316v-1.304c0-0.175,0.142-0.316,0.316-0.316c0.175,0,0.316,0.142,0.316,0.316
					v1.304C53.442,250.631,53.3,250.773,53.125,250.773z M53.125,248.165c-0.175,0-0.316-0.142-0.316-0.316v-1.304
					c0-0.175,0.142-0.316,0.316-0.316c0.175,0,0.316,0.142,0.316,0.316v1.304C53.442,248.023,53.3,248.165,53.125,248.165z
					 M53.125,245.558c-0.175,0-0.316-0.142-0.316-0.316v-1.304c0-0.175,0.142-0.316,0.316-0.316c0.175,0,0.316,0.142,0.316,0.316
					v1.304C53.442,245.416,53.3,245.558,53.125,245.558z M53.125,242.95c-0.175,0-0.316-0.142-0.316-0.316v-1.304
					c0-0.175,0.142-0.316,0.316-0.316c0.175,0,0.316,0.142,0.316,0.316v1.304C53.442,242.809,53.3,242.95,53.125,242.95z
					 M53.125,240.343c-0.175,0-0.316-0.142-0.316-0.316v-1.304c0-0.175,0.142-0.316,0.316-0.316c0.175,0,0.316,0.142,0.316,0.316
					v1.304C53.442,240.201,53.3,240.343,53.125,240.343z M53.125,237.735c-0.175,0-0.316-0.142-0.316-0.316v-1.304
					c0-0.175,0.142-0.316,0.316-0.316c0.175,0,0.316,0.142,0.316,0.316v1.304C53.442,237.594,53.3,237.735,53.125,237.735z
					 M53.125,235.128c-0.175,0-0.316-0.142-0.316-0.316v-1.304c0-0.175,0.142-0.316,0.316-0.316c0.175,0,0.316,0.142,0.316,0.316
					v1.304C53.442,234.986,53.3,235.128,53.125,235.128z M53.125,232.52c-0.175,0-0.316-0.142-0.316-0.316V230.9
					c0-0.175,0.142-0.316,0.316-0.316c0.175,0,0.316,0.142,0.316,0.316v1.304C53.442,232.379,53.3,232.52,53.125,232.52z
					 M53.125,229.913c-0.175,0-0.316-0.142-0.316-0.316v-1.304c0-0.175,0.142-0.316,0.316-0.316c0.175,0,0.316,0.142,0.316,0.316
					v1.304C53.442,229.771,53.3,229.913,53.125,229.913z M53.125,227.306c-0.175,0-0.316-0.142-0.316-0.316v-1.304
					c0-0.175,0.142-0.316,0.316-0.316c0.175,0,0.316,0.142,0.316,0.316v1.304C53.442,227.164,53.3,227.306,53.125,227.306z
					 M53.125,224.698c-0.175,0-0.316-0.142-0.316-0.316v-1.304c0-0.175,0.142-0.316,0.316-0.316c0.175,0,0.316,0.142,0.316,0.316
					v1.304C53.442,224.557,53.3,224.698,53.125,224.698z"/>
			</g>
			<g>
				<path style="fill:#FAFAFA;" d="M53.125,265.746c-0.175,0-0.316-0.142-0.316-0.316v-0.633c0-0.175,0.142-0.316,0.316-0.316
					c0.175,0,0.316,0.142,0.316,0.316v0.633C53.442,265.604,53.3,265.746,53.125,265.746z"/>
			</g>
		</g>
	</g>
	<g id="XMLID_18499_">
		
			<linearGradient id="XMLID_00000127038287821271621480000007709110953211068842_" gradientUnits="userSpaceOnUse" x1="10418.2461" y1="221.5772" x2="10438.9434" y2="253.4182" gradientTransform="matrix(-1 0 0 1 10833.2754 0)">
			<stop  offset="0" style="stop-color:#E6E6E6"/>
			<stop  offset="1" style="stop-color:#FFFFFF;stop-opacity:0"/>
		</linearGradient>
		<path id="XMLID_18663_" style="fill:url(#XMLID_00000127038287821271621480000007709110953211068842_);" d="M467.169,288.447
			c-3.419-2.054-3.84-33.164-15.214-39.527s-7.398,22.101-19.016,15.372c-11.054-6.403-7.671-39.618-19.018-46.116
			c-11.348-6.497-7.473,25.972-19.017,19.764c-10.04-5.399-9.19-18.324-15.765-24.036s-8.081,6.839-16.365,2.321
			c-8.284-4.518-1.239-29.427-18.845-39.592v47.437l123.243,71.621L467.169,288.447z"/>
		<g id="XMLID_18662_">
			<path style="fill:#E0E0E0;" d="M467.168,289.196c-0.131,0-0.265-0.034-0.385-0.107c-1.432-0.859-2.135-4.234-3.466-11.176
				c-1.973-10.295-4.676-24.393-11.728-28.339c-1.474-0.825-2.68-1.04-3.688-0.654c-2.171,0.829-3.413,4.452-4.615,7.955
				c-1.324,3.862-2.694,7.854-5.565,8.928c-1.498,0.561-3.186,0.279-5.157-0.862c-5.783-3.35-7.695-13.051-9.719-23.321
				c-1.908-9.681-3.881-19.691-9.297-22.792c-1.337-0.766-2.441-0.955-3.378-0.576c-2.369,0.958-3.683,5.486-4.952,9.866
				c-1.45,5.002-2.819,9.727-5.931,11.033c-1.383,0.583-2.979,0.397-4.739-0.549c-6.012-3.233-8.311-9.141-10.338-14.353
				c-1.494-3.841-2.905-7.47-5.564-9.778c-2.788-2.423-4.279-1.184-6.536,0.695c-2.266,1.886-5.085,4.235-9.696,1.718
				c-3.699-2.018-4.57-7.499-5.578-13.846c-1.408-8.871-3.161-19.911-13.283-25.754c-0.358-0.207-0.481-0.666-0.274-1.024
				c0.206-0.359,0.665-0.482,1.024-0.274c10.741,6.201,12.557,17.632,14.015,26.818c0.946,5.956,1.763,11.1,4.815,12.765
				c3.717,2.028,5.806,0.286,8.018-1.554c2.217-1.844,4.727-3.934,8.48-0.675c2.936,2.552,4.414,6.348,5.978,10.367
				c2.027,5.213,4.125,10.605,9.65,13.576c1.359,0.731,2.485,0.89,3.448,0.488c2.45-1.029,3.782-5.624,5.07-10.068
				c1.433-4.941,2.785-9.607,5.83-10.839c1.372-0.555,2.948-0.33,4.686,0.665c6.01,3.441,8.05,13.793,10.022,23.805
				c1.87,9.49,3.804,19.304,8.999,22.312c1.559,0.902,2.827,1.15,3.88,0.756c2.207-0.824,3.46-4.477,4.672-8.009
				c1.314-3.83,2.673-7.79,5.498-8.87c1.43-0.546,3.095-0.295,4.956,0.747c7.662,4.287,10.441,18.782,12.47,29.365
				c0.864,4.51,1.844,9.621,2.764,10.174c0.355,0.213,0.471,0.674,0.257,1.028C467.671,289.066,467.423,289.196,467.168,289.196z"/>
		</g>
		<g id="XMLID_18656_">
			<g>
				<path style="fill:#FAFAFA;" d="M413.921,219.125c-0.175,0-0.316-0.142-0.316-0.316v-0.633c0-0.175,0.142-0.316,0.316-0.316
					c0.175,0,0.316,0.142,0.316,0.316v0.633C414.237,218.983,414.096,219.125,413.921,219.125z"/>
			</g>
			<g>
				<path style="fill:#FAFAFA;" d="M413.921,263.358c-0.175,0-0.316-0.142-0.316-0.316v-1.301c0-0.175,0.142-0.316,0.316-0.316
					c0.175,0,0.316,0.142,0.316,0.316v1.301C414.237,263.217,414.096,263.358,413.921,263.358z M413.921,260.757
					c-0.175,0-0.316-0.142-0.316-0.316v-1.301c0-0.175,0.142-0.316,0.316-0.316c0.175,0,0.316,0.142,0.316,0.316v1.301
					C414.237,260.615,414.096,260.757,413.921,260.757z M413.921,258.155c-0.175,0-0.316-0.142-0.316-0.316v-1.302
					c0-0.175,0.142-0.316,0.316-0.316c0.175,0,0.316,0.142,0.316,0.316v1.302C414.237,258.014,414.096,258.155,413.921,258.155z
					 M413.921,255.553c-0.175,0-0.316-0.142-0.316-0.316v-1.301c0-0.175,0.142-0.316,0.316-0.316c0.175,0,0.316,0.142,0.316,0.316
					v1.301C414.237,255.411,414.096,255.553,413.921,255.553z M413.921,252.951c-0.175,0-0.316-0.142-0.316-0.316v-1.301
					c0-0.175,0.142-0.316,0.316-0.316c0.175,0,0.316,0.142,0.316,0.316v1.301C414.237,252.81,414.096,252.951,413.921,252.951z
					 M413.921,250.349c-0.175,0-0.316-0.142-0.316-0.316v-1.301c0-0.175,0.142-0.316,0.316-0.316c0.175,0,0.316,0.142,0.316,0.316
					v1.301C414.237,250.208,414.096,250.349,413.921,250.349z M413.921,247.747c-0.175,0-0.316-0.142-0.316-0.316v-1.301
					c0-0.175,0.142-0.316,0.316-0.316c0.175,0,0.316,0.142,0.316,0.316v1.301C414.237,247.605,414.096,247.747,413.921,247.747z
					 M413.921,245.145c-0.175,0-0.316-0.142-0.316-0.316v-1.301c0-0.175,0.142-0.316,0.316-0.316c0.175,0,0.316,0.142,0.316,0.316
					v1.301C414.237,245.003,414.096,245.145,413.921,245.145z M413.921,242.543c-0.175,0-0.316-0.142-0.316-0.316v-1.301
					c0-0.175,0.142-0.316,0.316-0.316c0.175,0,0.316,0.142,0.316,0.316v1.301C414.237,242.401,414.096,242.543,413.921,242.543z
					 M413.921,239.941c-0.175,0-0.316-0.142-0.316-0.316v-1.301c0-0.175,0.142-0.316,0.316-0.316c0.175,0,0.316,0.142,0.316,0.316
					v1.301C414.237,239.799,414.096,239.941,413.921,239.941z M413.921,237.339c-0.175,0-0.316-0.142-0.316-0.316v-1.301
					c0-0.175,0.142-0.316,0.316-0.316c0.175,0,0.316,0.142,0.316,0.316v1.301C414.237,237.197,414.096,237.339,413.921,237.339z
					 M413.921,234.737c-0.175,0-0.316-0.142-0.316-0.316v-1.301c0-0.175,0.142-0.316,0.316-0.316c0.175,0,0.316,0.142,0.316,0.316
					v1.301C414.237,234.596,414.096,234.737,413.921,234.737z M413.921,232.135c-0.175,0-0.316-0.142-0.316-0.316v-1.301
					c0-0.175,0.142-0.316,0.316-0.316c0.175,0,0.316,0.142,0.316,0.316v1.301C414.237,231.994,414.096,232.135,413.921,232.135z
					 M413.921,229.533c-0.175,0-0.316-0.142-0.316-0.316v-1.301c0-0.175,0.142-0.316,0.316-0.316c0.175,0,0.316,0.142,0.316,0.316
					v1.301C414.237,229.392,414.096,229.533,413.921,229.533z M413.921,226.931c-0.175,0-0.316-0.142-0.316-0.316v-1.301
					c0-0.175,0.142-0.316,0.316-0.316c0.175,0,0.316,0.142,0.316,0.316v1.301C414.237,226.79,414.096,226.931,413.921,226.931z
					 M413.921,224.329c-0.175,0-0.316-0.142-0.316-0.316v-1.301c0-0.175,0.142-0.316,0.316-0.316c0.175,0,0.316,0.142,0.316,0.316
					v1.301C414.237,224.188,414.096,224.329,413.921,224.329z M413.921,221.727c-0.175,0-0.316-0.142-0.316-0.316v-1.301
					c0-0.175,0.142-0.316,0.316-0.316c0.175,0,0.316,0.142,0.316,0.316v1.301C414.237,221.585,414.096,221.727,413.921,221.727z"/>
			</g>
			<g>
				<path style="fill:#FAFAFA;" d="M413.921,265.293c-0.175,0-0.316-0.142-0.316-0.316v-0.633c0-0.175,0.142-0.316,0.316-0.316
					c0.175,0,0.316,0.142,0.316,0.316v0.633C414.237,265.151,414.096,265.293,413.921,265.293z"/>
			</g>
		</g>
		<g id="XMLID_18642_">
			<g>
				<path style="fill:#FAFAFA;" d="M376.876,213.621c-0.175,0-0.316-0.142-0.316-0.316v-0.633c0-0.175,0.142-0.316,0.316-0.316
					c0.175,0,0.316,0.142,0.316,0.316v0.633C377.192,213.479,377.051,213.621,376.876,213.621z"/>
			</g>
			<g>
				<path style="fill:#FAFAFA;" d="M376.876,241.626c-0.175,0-0.316-0.142-0.316-0.316v-1.273c0-0.175,0.142-0.316,0.316-0.316
					c0.175,0,0.316,0.142,0.316,0.316v1.273C377.192,241.484,377.051,241.626,376.876,241.626z M376.876,239.08
					c-0.175,0-0.316-0.142-0.316-0.316v-1.273c0-0.175,0.142-0.316,0.316-0.316c0.175,0,0.316,0.142,0.316,0.316v1.273
					C377.192,238.939,377.051,239.08,376.876,239.08z M376.876,236.534c-0.175,0-0.316-0.142-0.316-0.316v-1.273
					c0-0.175,0.142-0.316,0.316-0.316c0.175,0,0.316,0.142,0.316,0.316v1.273C377.192,236.393,377.051,236.534,376.876,236.534z
					 M376.876,233.988c-0.175,0-0.316-0.142-0.316-0.316v-1.273c0-0.175,0.142-0.316,0.316-0.316c0.175,0,0.316,0.142,0.316,0.316
					v1.273C377.192,233.847,377.051,233.988,376.876,233.988z M376.876,231.442c-0.175,0-0.316-0.142-0.316-0.316v-1.273
					c0-0.175,0.142-0.316,0.316-0.316c0.175,0,0.316,0.142,0.316,0.316v1.273C377.192,231.301,377.051,231.442,376.876,231.442z
					 M376.876,228.896c-0.175,0-0.316-0.142-0.316-0.316v-1.273c0-0.175,0.142-0.316,0.316-0.316c0.175,0,0.316,0.142,0.316,0.316
					v1.273C377.192,228.754,377.051,228.896,376.876,228.896z M376.876,226.35c-0.175,0-0.316-0.142-0.316-0.316v-1.273
					c0-0.175,0.142-0.316,0.316-0.316c0.175,0,0.316,0.142,0.316,0.316v1.273C377.192,226.208,377.051,226.35,376.876,226.35z
					 M376.876,223.804c-0.175,0-0.316-0.142-0.316-0.316v-1.273c0-0.175,0.142-0.316,0.316-0.316c0.175,0,0.316,0.142,0.316,0.316
					v1.273C377.192,223.663,377.051,223.804,376.876,223.804z M376.876,221.258c-0.175,0-0.316-0.142-0.316-0.316v-1.273
					c0-0.175,0.142-0.316,0.316-0.316c0.175,0,0.316,0.142,0.316,0.316v1.273C377.192,221.117,377.051,221.258,376.876,221.258z
					 M376.876,218.712c-0.175,0-0.316-0.142-0.316-0.316v-1.273c0-0.175,0.142-0.316,0.316-0.316c0.175,0,0.316,0.142,0.316,0.316
					v1.273C377.192,218.571,377.051,218.712,376.876,218.712z M376.876,216.167c-0.175,0-0.316-0.142-0.316-0.316v-1.273
					c0-0.175,0.142-0.316,0.316-0.316c0.175,0,0.316,0.142,0.316,0.316v1.273C377.192,216.025,377.051,216.167,376.876,216.167z"/>
			</g>
			<g>
				<path style="fill:#FAFAFA;" d="M376.876,243.532c-0.175,0-0.316-0.142-0.316-0.316v-0.633c0-0.175,0.142-0.316,0.316-0.316
					c0.175,0,0.316,0.142,0.316,0.316v0.633C377.192,243.391,377.051,243.532,376.876,243.532z"/>
			</g>
		</g>
		<g id="XMLID_18500_">
			<g>
				<path style="fill:#FAFAFA;" d="M450.146,249.595c-0.175,0-0.316-0.142-0.316-0.316v-0.633c0-0.175,0.142-0.316,0.316-0.316
					s0.316,0.142,0.316,0.316v0.633C450.463,249.454,450.321,249.595,450.146,249.595z"/>
			</g>
			<g>
				<path style="fill:#FAFAFA;" d="M450.146,279.714c-0.175,0-0.316-0.142-0.316-0.316v-1.255c0-0.175,0.142-0.316,0.316-0.316
					s0.316,0.142,0.316,0.316v1.255C450.463,279.572,450.321,279.714,450.146,279.714z M450.146,277.204
					c-0.175,0-0.316-0.142-0.316-0.316v-1.255c0-0.175,0.142-0.316,0.316-0.316s0.316,0.142,0.316,0.316v1.255
					C450.463,277.063,450.321,277.204,450.146,277.204z M450.146,274.694c-0.175,0-0.316-0.142-0.316-0.316v-1.255
					c0-0.175,0.142-0.316,0.316-0.316s0.316,0.142,0.316,0.316v1.255C450.463,274.553,450.321,274.694,450.146,274.694z
					 M450.146,272.185c-0.175,0-0.316-0.142-0.316-0.316v-1.255c0-0.175,0.142-0.316,0.316-0.316s0.316,0.142,0.316,0.316v1.255
					C450.463,272.043,450.321,272.185,450.146,272.185z M450.146,269.675c-0.175,0-0.316-0.142-0.316-0.316v-1.255
					c0-0.175,0.142-0.316,0.316-0.316s0.316,0.142,0.316,0.316v1.255C450.463,269.533,450.321,269.675,450.146,269.675z
					 M450.146,267.165c-0.175,0-0.316-0.142-0.316-0.316v-1.256c0-0.175,0.142-0.316,0.316-0.316s0.316,0.142,0.316,0.316v1.256
					C450.463,267.023,450.321,267.165,450.146,267.165z M450.146,264.654c-0.175,0-0.316-0.142-0.316-0.316v-1.255
					c0-0.175,0.142-0.316,0.316-0.316s0.316,0.142,0.316,0.316v1.255C450.463,264.513,450.321,264.654,450.146,264.654z
					 M450.146,262.145c-0.175,0-0.316-0.142-0.316-0.316v-1.255c0-0.175,0.142-0.316,0.316-0.316s0.316,0.142,0.316,0.316v1.255
					C450.463,262.003,450.321,262.145,450.146,262.145z M450.146,259.635c-0.175,0-0.316-0.142-0.316-0.316v-1.255
					c0-0.175,0.142-0.316,0.316-0.316s0.316,0.142,0.316,0.316v1.255C450.463,259.493,450.321,259.635,450.146,259.635z
					 M450.146,257.125c-0.175,0-0.316-0.142-0.316-0.316v-1.255c0-0.175,0.142-0.316,0.316-0.316s0.316,0.142,0.316,0.316v1.255
					C450.463,256.983,450.321,257.125,450.146,257.125z M450.146,254.615c-0.175,0-0.316-0.142-0.316-0.316v-1.255
					c0-0.175,0.142-0.316,0.316-0.316s0.316,0.142,0.316,0.316v1.255C450.463,254.474,450.321,254.615,450.146,254.615z
					 M450.146,252.105c-0.175,0-0.316-0.142-0.316-0.316v-1.255c0-0.175,0.142-0.316,0.316-0.316s0.316,0.142,0.316,0.316v1.255
					C450.463,251.964,450.321,252.105,450.146,252.105z"/>
			</g>
			<g>
				<path style="fill:#FAFAFA;" d="M450.146,281.603c-0.175,0-0.316-0.142-0.316-0.316v-0.634c0-0.175,0.142-0.316,0.316-0.316
					s0.316,0.142,0.316,0.316v0.634C450.463,281.461,450.321,281.603,450.146,281.603z"/>
			</g>
		</g>
	</g>
	<g id="XMLID_1026_">
		<g id="XMLID_18450_">
			<path id="XMLID_18455_" style="fill:#EBEBEB;" d="M400.239,168l0-10.342l-8.82-1.697c-0.38-0.073-0.714,0.014-0.987,0.185
				l-0.005-0.01l-4.398,2.539l5.725,1.159L400.239,168z"/>
			<g id="XMLID_18449_">
				<path id="XMLID_18448_" style="fill:#EBEBEB;" d="M460.365,226.339l0.66-0.381c1.055-0.609,1.909-2.09,1.909-3.307l0-52.467
					c0-1.218-0.855-2.698-1.909-3.307l-58.875-33.992c-1.055-0.609-2.764-0.609-3.819,0l-0.659,0.381
					c-1.055,0.609-1.91,2.09-1.91,3.307l0,52.467c0,1.218,0.855,2.699,1.91,3.307l58.875,33.992
					C457.601,226.947,459.311,226.947,460.365,226.339z"/>
				<path id="XMLID_18447_" style="fill:#E0E0E0;" d="M462.934,204.175v-33.992c0-0.609-0.214-1.284-0.559-1.882l-8.398,4.848
					v51.706l2.569,1.483c1.055,0.609,2.764,0.609,3.818,0l0.662-0.382c1.054-0.609,1.908-2.089,1.908-3.306V204.175z"/>
				<path id="XMLID_18437_" style="fill:#F0F0F0;" d="M397.671,135.47l58.876,33.992c1.055,0.609,1.91,2.09,1.91,3.307v52.467
					c0,1.218-0.855,1.711-1.91,1.102l-58.875-33.992c-1.055-0.609-1.91-2.09-1.91-3.307l0-52.467
					C395.761,135.355,396.616,134.861,397.671,135.47z"/>
			</g>
			<path id="XMLID_18451_" style="fill:#F0F0F0;" d="M395.762,170.586l-10.049-9.669c-0.999-0.961-0.133-2.632,1.228-2.37
				l8.82,1.697L395.762,170.586z"/>
		</g>
		<g id="XMLID_18453_">
			<g id="XMLID_18468_">
				<g id="XMLID_18475_">
					<path id="XMLID_18551_" style="fill:#263238;" d="M426.012,179.512c0.243,0.222,0.235,0.602,0.235,0.602
						c0,8.211,5.878,18.074,12.896,22.337c7.302,4.435,13.1,1.119,12.896-7.446c-0.185-7.747-5.153-17.11-11.71-21.59l0.391-0.225
						l0-0.656c6.919,4.901,12.312,14.816,12.312,23.044c0,8.843-6.23,12.44-13.889,8.019c-7.658-4.421-13.951-15.25-13.889-24.056
						C425.323,179.21,425.773,179.294,426.012,179.512z"/>
				</g>
			</g>
			<g id="XMLID_18464_">
				<g id="XMLID_18465_">
					<path id="XMLID_18466_" style="fill:#27DEBF;" d="M423.874,178.82c0-9.633,6.787-13.552,15.13-8.735
						c3.659,2.112,7.19,5.679,9.944,10.044l-2.284,1.704c-2.121-3.361-4.841-6.109-7.659-7.736
						c-6.427-3.711-11.655-0.691-11.655,6.73c0,7.421,5.229,16.477,11.655,20.188c6.427,3.71,11.655,0.692,11.655-6.729l3.474,2.006
						c0,9.633-6.787,13.551-15.13,8.735C430.661,200.208,423.874,188.453,423.874,178.82z"/>
				</g>
			</g>
			<g id="XMLID_18454_">
				<g id="XMLID_18459_">
					<path id="XMLID_18460_" style="fill:#455A64;" d="M438.994,177.399c4.86,2.806,8.8,9.63,8.8,15.242
						c0,5.612-3.94,7.887-8.8,5.081c-4.86-2.806-8.8-9.63-8.8-15.242C430.193,176.868,434.133,174.593,438.994,177.399z"/>
				</g>
			</g>
		</g>
		<g id="XMLID_18462_">
			<path id="XMLID_18461_" style="fill:#E0E0E0;" d="M404.259,151.094l15.048,8.688c0.791,0.457,1.432,1.47,1.432,2.264
				s-0.641,1.067-1.432,0.611l-15.049-8.688c-0.791-0.457-1.432-1.471-1.432-2.264C402.827,150.911,403.468,150.637,404.259,151.094
				z"/>
			<path id="XMLID_18463_" style="fill:#E0E0E0;" d="M404.259,158.532l15.048,8.688c0.791,0.457,1.432,1.47,1.432,2.264
				s-0.641,1.067-1.432,0.611l-15.049-8.688c-0.791-0.457-1.432-1.471-1.432-2.264C402.827,158.349,403.468,158.075,404.259,158.532
				z"/>
			<path id="XMLID_18476_" style="fill:#E0E0E0;" d="M404.259,165.971l15.048,8.688c0.791,0.457,1.432,1.47,1.432,2.264
				s-0.641,1.067-1.432,0.611l-15.049-8.688c-0.791-0.457-1.432-1.471-1.432-2.264C402.827,165.787,403.468,165.514,404.259,165.971
				z"/>
			<path id="XMLID_18525_" style="fill:#E0E0E0;" d="M404.259,173.409l15.048,8.688c0.791,0.457,1.432,1.47,1.432,2.264
				s-0.641,1.067-1.432,0.611l-15.049-8.688c-0.791-0.457-1.432-1.471-1.432-2.264C402.827,173.226,403.468,172.952,404.259,173.409
				z"/>
			<path id="XMLID_18526_" style="fill:#E0E0E0;" d="M404.259,180.847l15.048,8.688c0.791,0.457,1.432,1.47,1.432,2.264
				c0,0.794-0.641,1.067-1.432,0.611l-15.049-8.688c-0.791-0.457-1.432-1.471-1.432-2.265
				C402.827,180.664,403.468,180.391,404.259,180.847z"/>
		</g>
	</g>
	<g id="XMLID_18495_">
		<g id="XMLID_1027_">
			<path id="XMLID_16952_" style="fill:#EBEBEB;" d="M104.692,134.051l0.001-10.342l8.82-1.698c0.38-0.073,0.714,0.014,0.987,0.185
				l0.005-0.01l4.398,2.539l-5.725,1.159L104.692,134.051z"/>
			<g id="XMLID_16945_">
				<path id="XMLID_16951_" style="fill:#EBEBEB;" d="M44.566,192.389l-0.66-0.381c-1.055-0.609-1.91-2.09-1.91-3.307l0-52.467
					c0-1.218,0.855-2.699,1.91-3.307l58.876-33.992c1.055-0.609,2.764-0.609,3.819,0l0.659,0.381c1.055,0.609,1.91,2.09,1.91,3.307
					l0,52.467c0,1.218-0.855,2.698-1.91,3.307l-58.875,33.992C47.331,192.998,45.621,192.998,44.566,192.389z"/>
				<path id="XMLID_16948_" style="fill:#E0E0E0;" d="M41.997,170.226v-33.992c0-0.609,0.214-1.283,0.559-1.882l8.397,4.848v51.706
					l-2.569,1.483c-1.055,0.609-2.764,0.609-3.818,0l-0.662-0.382c-1.054-0.609-1.908-2.089-1.908-3.306V170.226z"/>
				<path id="XMLID_16946_" style="fill:#F0F0F0;" d="M107.261,101.521l-58.875,33.992c-1.055,0.609-1.91,2.09-1.91,3.307v52.467
					c0,1.218,0.855,1.711,1.91,1.102l58.875-33.992c1.055-0.609,1.91-2.09,1.91-3.307l0-52.467
					C109.17,101.405,108.315,100.912,107.261,101.521z"/>
			</g>
			<path id="XMLID_16944_" style="fill:#F0F0F0;" d="M109.17,136.637l10.049-9.67c0.999-0.961,0.133-2.632-1.228-2.37l-8.82,1.698
				L109.17,136.637z"/>
		</g>
		<g id="XMLID_17264_">
			<path id="XMLID_16988_" style="fill:#27DEBF;" d="M53.125,174.215V156.8c0-3.331,1.777-6.409,4.662-8.075l0,0
				c2.489-1.437,5.627,0.213,5.853,3.078l0,0c0.178,2.249,2.655,3.53,4.593,2.375l0,0c2.153-1.283,3.522-3.557,3.649-6.059
				l0.773-15.27c0.134-2.64,1.589-5.035,3.871-6.369l0,0c2.832-1.657,6.417,0.255,6.618,3.531l0.523,8.504
				c0.12,1.949,2.247,3.091,3.938,2.115l0,0c2.3-1.328,3.837-3.666,4.144-6.305l0.356-3.059c0.32-2.749,1.923-5.184,4.322-6.564l0,0
				c2.691-1.548,6.048,0.395,6.048,3.499v17.523L53.125,174.215z"/>
			<g id="XMLID_17259_">
				<g id="XMLID_17140_">
					<g>
						<path style="fill:#FAFAFA;" d="M58.502,149.448c-0.175,0-0.316-0.142-0.316-0.316v-0.633c0-0.175,0.142-0.316,0.316-0.316
							s0.316,0.142,0.316,0.316v0.633C58.819,149.306,58.677,149.448,58.502,149.448z"/>
					</g>
					<g>
						<path style="fill:#FAFAFA;" d="M58.502,169.538c-0.175,0-0.316-0.142-0.316-0.316v-1.256c0-0.175,0.142-0.316,0.316-0.316
							s0.316,0.142,0.316,0.316v1.256C58.819,169.396,58.677,169.538,58.502,169.538z M58.502,167.027
							c-0.175,0-0.316-0.142-0.316-0.316v-1.256c0-0.175,0.142-0.316,0.316-0.316s0.316,0.142,0.316,0.316v1.256
							C58.819,166.885,58.677,167.027,58.502,167.027z M58.502,164.515c-0.175,0-0.316-0.142-0.316-0.316v-1.255
							c0-0.175,0.142-0.316,0.316-0.316s0.316,0.142,0.316,0.316v1.255C58.819,164.374,58.677,164.515,58.502,164.515z
							 M58.502,162.004c-0.175,0-0.316-0.142-0.316-0.316v-1.255c0-0.175,0.142-0.316,0.316-0.316s0.316,0.142,0.316,0.316v1.255
							C58.819,161.862,58.677,162.004,58.502,162.004z M58.502,159.493c-0.175,0-0.316-0.142-0.316-0.316v-1.256
							c0-0.175,0.142-0.316,0.316-0.316s0.316,0.142,0.316,0.316v1.256C58.819,159.351,58.677,159.493,58.502,159.493z
							 M58.502,156.981c-0.175,0-0.316-0.142-0.316-0.316v-1.256c0-0.175,0.142-0.316,0.316-0.316s0.316,0.142,0.316,0.316v1.256
							C58.819,156.84,58.677,156.981,58.502,156.981z M58.502,154.47c-0.175,0-0.316-0.142-0.316-0.316v-1.256
							c0-0.175,0.142-0.316,0.316-0.316s0.316,0.142,0.316,0.316v1.256C58.819,154.329,58.677,154.47,58.502,154.47z
							 M58.502,151.959c-0.175,0-0.316-0.142-0.316-0.316v-1.256c0-0.175,0.142-0.316,0.316-0.316s0.316,0.142,0.316,0.316v1.256
							C58.819,151.817,58.677,151.959,58.502,151.959z"/>
					</g>
					<g>
						<path style="fill:#FAFAFA;" d="M58.502,171.427c-0.175,0-0.316-0.142-0.316-0.316v-0.633c0-0.175,0.142-0.316,0.316-0.316
							s0.316,0.142,0.316,0.316v0.633C58.819,171.285,58.677,171.427,58.502,171.427z"/>
					</g>
				</g>
				<path id="XMLID_17009_" style="fill:#37474F;" d="M58.502,147.418c-0.517,0.298-0.935,1.023-0.935,1.62s0.419,0.838,0.935,0.54
					c0.517-0.298,0.935-1.024,0.935-1.62C59.438,147.361,59.019,147.12,58.502,147.418z"/>
			</g>
			<g id="XMLID_17208_">
				<g id="XMLID_17160_">
					<g>
						<path style="fill:#FAFAFA;" d="M77.8,126.835c-0.175,0-0.316-0.142-0.316-0.316v-0.633c0-0.175,0.142-0.316,0.316-0.316
							c0.175,0,0.316,0.142,0.316,0.316v0.633C78.117,126.693,77.975,126.835,77.8,126.835z"/>
					</g>
					<g>
						<path style="fill:#FAFAFA;" d="M77.8,158.339c-0.175,0-0.316-0.142-0.316-0.316v-1.313c0-0.175,0.142-0.316,0.316-0.316
							c0.175,0,0.316,0.142,0.316,0.316v1.313C78.117,158.198,77.975,158.339,77.8,158.339z M77.8,155.714
							c-0.175,0-0.316-0.142-0.316-0.316v-1.313c0-0.175,0.142-0.316,0.316-0.316c0.175,0,0.316,0.142,0.316,0.316v1.313
							C78.117,155.572,77.975,155.714,77.8,155.714z M77.8,153.088c-0.175,0-0.316-0.142-0.316-0.316v-1.313
							c0-0.175,0.142-0.316,0.316-0.316c0.175,0,0.316,0.142,0.316,0.316v1.313C78.117,152.947,77.975,153.088,77.8,153.088z
							 M77.8,150.463c-0.175,0-0.316-0.142-0.316-0.316v-1.313c0-0.175,0.142-0.316,0.316-0.316c0.175,0,0.316,0.142,0.316,0.316
							v1.313C78.117,150.321,77.975,150.463,77.8,150.463z M77.8,147.838c-0.175,0-0.316-0.142-0.316-0.316v-1.313
							c0-0.175,0.142-0.316,0.316-0.316c0.175,0,0.316,0.142,0.316,0.316v1.313C78.117,147.696,77.975,147.838,77.8,147.838z
							 M77.8,145.212c-0.175,0-0.316-0.142-0.316-0.316v-1.313c0-0.175,0.142-0.316,0.316-0.316c0.175,0,0.316,0.142,0.316,0.316
							v1.313C78.117,145.071,77.975,145.212,77.8,145.212z M77.8,142.587c-0.175,0-0.316-0.142-0.316-0.316v-1.313
							c0-0.175,0.142-0.316,0.316-0.316c0.175,0,0.316,0.142,0.316,0.316v1.313C78.117,142.445,77.975,142.587,77.8,142.587z
							 M77.8,139.961c-0.175,0-0.316-0.142-0.316-0.316v-1.313c0-0.175,0.142-0.316,0.316-0.316c0.175,0,0.316,0.142,0.316,0.316
							v1.313C78.117,139.82,77.975,139.961,77.8,139.961z M77.8,137.336c-0.175,0-0.316-0.142-0.316-0.316v-1.313
							c0-0.175,0.142-0.316,0.316-0.316c0.175,0,0.316,0.142,0.316,0.316v1.313C78.117,137.195,77.975,137.336,77.8,137.336z
							 M77.8,134.711c-0.175,0-0.316-0.142-0.316-0.316v-1.313c0-0.175,0.142-0.316,0.316-0.316c0.175,0,0.316,0.142,0.316,0.316
							v1.313C78.117,134.569,77.975,134.711,77.8,134.711z M77.8,132.085c-0.175,0-0.316-0.142-0.316-0.316v-1.313
							c0-0.175,0.142-0.316,0.316-0.316c0.175,0,0.316,0.142,0.316,0.316v1.313C78.117,131.944,77.975,132.085,77.8,132.085z
							 M77.8,129.46c-0.175,0-0.316-0.142-0.316-0.316v-1.313c0-0.175,0.142-0.316,0.316-0.316c0.175,0,0.316,0.142,0.316,0.316
							v1.313C78.117,129.318,77.975,129.46,77.8,129.46z"/>
					</g>
					<g>
						<path style="fill:#FAFAFA;" d="M77.8,160.285c-0.175,0-0.316-0.142-0.316-0.316v-0.633c0-0.175,0.142-0.316,0.316-0.316
							c0.175,0,0.316,0.142,0.316,0.316v0.633C78.117,160.144,77.975,160.285,77.8,160.285z"/>
					</g>
				</g>
				<path id="XMLID_17146_" style="fill:#37474F;" d="M77.8,124.805c-0.517,0.298-0.935,1.024-0.935,1.62
					c0,0.597,0.419,0.838,0.935,0.54c0.517-0.298,0.935-1.024,0.935-1.62C78.736,124.749,78.317,124.507,77.8,124.805z"/>
			</g>
			<g id="XMLID_17014_">
				<g id="XMLID_17206_">
					<g>
						<path style="fill:#FAFAFA;" d="M97.123,125.354c-0.175,0-0.316-0.142-0.316-0.316v-0.633c0-0.175,0.142-0.316,0.316-0.316
							c0.175,0,0.316,0.142,0.316,0.316v0.633C97.439,125.213,97.297,125.354,97.123,125.354z"/>
					</g>
					<g>
						<path style="fill:#FAFAFA;" d="M97.123,147.278c-0.175,0-0.316-0.142-0.316-0.316v-1.218c0-0.175,0.142-0.316,0.316-0.316
							c0.175,0,0.316,0.142,0.316,0.316v1.218C97.439,147.137,97.297,147.278,97.123,147.278z M97.123,144.842
							c-0.175,0-0.316-0.142-0.316-0.316v-1.218c0-0.175,0.142-0.316,0.316-0.316c0.175,0,0.316,0.142,0.316,0.316v1.218
							C97.439,144.701,97.297,144.842,97.123,144.842z M97.123,142.406c-0.175,0-0.316-0.142-0.316-0.316v-1.218
							c0-0.175,0.142-0.316,0.316-0.316c0.175,0,0.316,0.142,0.316,0.316v1.218C97.439,142.265,97.297,142.406,97.123,142.406z
							 M97.123,139.97c-0.175,0-0.316-0.142-0.316-0.316v-1.218c0-0.175,0.142-0.316,0.316-0.316c0.175,0,0.316,0.142,0.316,0.316
							v1.218C97.439,139.829,97.297,139.97,97.123,139.97z M97.123,137.534c-0.175,0-0.316-0.142-0.316-0.316V136
							c0-0.175,0.142-0.316,0.316-0.316c0.175,0,0.316,0.142,0.316,0.316v1.218C97.439,137.393,97.297,137.534,97.123,137.534z
							 M97.123,135.098c-0.175,0-0.316-0.142-0.316-0.316v-1.218c0-0.175,0.142-0.316,0.316-0.316c0.175,0,0.316,0.142,0.316,0.316
							v1.218C97.439,134.956,97.297,135.098,97.123,135.098z M97.123,132.662c-0.175,0-0.316-0.142-0.316-0.316v-1.218
							c0-0.175,0.142-0.316,0.316-0.316c0.175,0,0.316,0.142,0.316,0.316v1.218C97.439,132.52,97.297,132.662,97.123,132.662z
							 M97.123,130.226c-0.175,0-0.316-0.142-0.316-0.316v-1.218c0-0.175,0.142-0.316,0.316-0.316c0.175,0,0.316,0.142,0.316,0.316
							v1.218C97.439,130.085,97.297,130.226,97.123,130.226z M97.123,127.79c-0.175,0-0.316-0.142-0.316-0.316v-1.218
							c0-0.175,0.142-0.316,0.316-0.316c0.175,0,0.316,0.142,0.316,0.316v1.218C97.439,127.648,97.297,127.79,97.123,127.79z"/>
					</g>
					<g>
						<path style="fill:#FAFAFA;" d="M97.123,149.129c-0.175,0-0.316-0.142-0.316-0.316v-0.633c0-0.175,0.142-0.316,0.316-0.316
							c0.175,0,0.316,0.142,0.316,0.316v0.633C97.439,148.988,97.297,149.129,97.123,149.129z"/>
					</g>
				</g>
				<path id="XMLID_17165_" style="fill:#37474F;" d="M97.122,123.325c-0.516,0.298-0.935,1.024-0.935,1.62
					c0,0.597,0.419,0.838,0.936,0.54c0.517-0.298,0.935-1.024,0.935-1.62C98.058,123.268,97.639,123.026,97.122,123.325z"/>
			</g>
			<g id="XMLID_17207_">
				<path style="fill:#455A64;" d="M53.126,181.554c-0.173,0-0.341-0.089-0.434-0.25c-0.138-0.239-0.056-0.545,0.183-0.683
					l49.35-28.492c0.237-0.139,0.544-0.057,0.683,0.183c0.138,0.239,0.056,0.545-0.183,0.683l-49.35,28.492
					C53.297,181.533,53.211,181.554,53.126,181.554z"/>
			</g>
		</g>
	</g>
</g>
<g id="Charts_1">
	<g id="XMLID_18501_">
		<g id="XMLID_18280_">
			<g>
				<path id="XMLID_18331_" style="fill:#27DEBF;" d="M212.63,325.516l-58.875,33.992c-1.055,0.609-1.91,2.09-1.91,3.307v0.761
					c0,1.218,0.855,2.699,1.91,3.307l58.876,33.992c1.055,0.609,2.764,0.609,3.819,0l58.875-33.992
					c1.055-0.609,1.91-2.09,1.91-3.307l0-0.761c0-1.218-0.855-2.698-1.909-3.307l-58.876-33.992
					C215.395,324.907,213.685,324.907,212.63,325.516z"/>
				<path id="XMLID_5_" style="opacity:0.7;fill:#FAFAFA;" d="M212.63,325.516l-58.875,33.992c-1.055,0.609-1.91,2.09-1.91,3.307
					v0.761c0,1.218,0.855,2.699,1.91,3.307l58.876,33.992c1.055,0.609,2.764,0.609,3.819,0l58.875-33.992
					c1.055-0.609,1.91-2.09,1.91-3.307l0-0.761c0-1.218-0.855-2.698-1.909-3.307l-58.876-33.992
					C215.395,324.907,213.685,324.907,212.63,325.516z"/>
			</g>
			<g>
				<path id="XMLID_18325_" style="fill:#27DEBF;" d="M156.324,358.025l-2.569,1.483c-1.055,0.609-1.909,2.09-1.909,3.307v0.761
					c0,1.218,0.855,2.698,1.909,3.307l58.876,33.992c0.528,0.304,1.219,0.457,1.909,0.457v-9.696L156.324,358.025z"/>
				<path id="XMLID_3_" style="opacity:0.6;fill:#FAFAFA;" d="M156.324,358.025l-2.569,1.483c-1.055,0.609-1.909,2.09-1.909,3.307
					v0.761c0,1.218,0.855,2.698,1.909,3.307l58.876,33.992c0.528,0.304,1.219,0.457,1.909,0.457v-9.696L156.324,358.025z"/>
			</g>
			<g>
				<path id="XMLID_18281_" style="fill:#27DEBF;" d="M212.63,325.516l-58.875,33.992c-1.055,0.609-1.055,1.596,0,2.205
					l58.876,33.992c1.055,0.609,2.764,0.609,3.819,0l58.875-33.992c1.055-0.609,1.055-1.596,0-2.205l-58.876-33.992
					C215.395,324.907,213.685,324.907,212.63,325.516z"/>
				<path id="XMLID_4_" style="opacity:0.8;fill:#FAFAFA;" d="M212.63,325.516l-58.875,33.992c-1.055,0.609-1.055,1.596,0,2.205
					l58.876,33.992c1.055,0.609,2.764,0.609,3.819,0l58.875-33.992c1.055-0.609,1.055-1.596,0-2.205l-58.876-33.992
					C215.395,324.907,213.685,324.907,212.63,325.516z"/>
			</g>
			<g id="XMLID_18402_">
				<g id="XMLID_18414_">
					<g id="XMLID_18415_">
						<g id="XMLID_18416_">
							<path style="fill-rule:evenodd;clip-rule:evenodd;fill:#455A64;" d="M211.786,360.87l-27.624,2.526
								c-2.656-9.683,8.786-18.776,25.559-20.31c10.063-0.92,19.347,0.821,26.551,4.981l-19.355,11.174
								C215.599,360.002,213.302,360.732,211.786,360.87z"/>
							<path style="fill:#FAFAFA;" d="M184.162,364.397c-0.446,0-0.844-0.298-0.964-0.735c-0.949-3.458-0.275-6.982,1.949-10.19
								c4.235-6.112,13.387-10.366,24.483-11.381c10.325-0.943,19.715,0.823,27.142,5.11c0.309,0.179,0.5,0.509,0.5,0.866
								s-0.191,0.688-0.5,0.866l-19.355,11.175c-1.446,0.834-3.879,1.607-5.54,1.759l0,0l-27.624,2.526
								C184.223,364.396,184.192,364.397,184.162,364.397z M214.97,343.842c-1.687,0-3.408,0.08-5.158,0.24
								c-10.356,0.946-19.178,4.98-23.021,10.527c-1.699,2.452-2.331,5.102-1.85,7.712l26.754-2.447
								c1.369-0.125,3.532-0.811,4.723-1.499l17.808-10.281C228.71,345.285,222.153,343.842,214.97,343.842z"/>
						</g>
					</g>
				</g>
				<g id="XMLID_18411_">
					<g id="XMLID_18412_">
						<g id="XMLID_18413_">
							<path style="fill-rule:evenodd;clip-rule:evenodd;fill:#27DEBF;" d="M216.354,362.686l12.135,13.751
								c-15.13,4.451-33.645,0.977-41.355-7.758c-1.542-1.747-2.441-3.346-2.973-5.282l27.624-2.526
								C213.302,360.732,215.347,361.544,216.354,362.686z"/>
							<path style="fill:#FAFAFA;" d="M214.64,379.358c-11.507,0-22.649-3.667-28.255-10.018c-1.635-1.852-2.618-3.604-3.187-5.68
								c-0.078-0.285-0.026-0.591,0.143-0.834c0.169-0.243,0.436-0.399,0.73-0.427l27.624-2.526c1.818-0.168,4.199,0.777,5.41,2.149
								l12.135,13.751c0.226,0.257,0.306,0.61,0.211,0.939c-0.095,0.328-0.351,0.586-0.679,0.682
								C224.246,378.728,219.41,379.357,214.64,379.358z M185.505,364.278c0.508,1.299,1.257,2.467,2.379,3.738
								c7.21,8.168,24.328,11.569,38.795,7.88l-11.075-12.549l0,0c-0.792-0.899-2.536-1.597-3.727-1.481L185.505,364.278z"/>
						</g>
					</g>
				</g>
				<g id="XMLID_18408_">
					<g id="XMLID_18409_">
						<g id="XMLID_18410_">
							<path style="fill-rule:evenodd;clip-rule:evenodd;fill:#263238;" d="M217.275,360.368l27.624-2.526
								c2.125,7.747-4.305,15.033-16.41,18.594l-12.135-13.751C215.347,361.544,215.759,360.507,217.275,360.368z"/>
							<path style="fill:#FAFAFA;" d="M228.49,377.436c-0.282,0-0.557-0.12-0.75-0.338l-12.135-13.751
								c-0.738-0.837-0.98-1.772-0.665-2.566c0.315-0.794,1.134-1.308,2.245-1.409l27.624-2.526
								c0.483-0.047,0.928,0.265,1.056,0.731c2.28,8.314-4.429,16.093-17.092,19.818
								C228.679,377.423,228.584,377.436,228.49,377.436z M217.367,361.364c-0.384,0.035-0.551,0.141-0.579,0.174
								c0.012,0.006,0.062,0.197,0.316,0.485l11.71,13.271c10.7-3.315,16.587-9.64,15.308-16.377L217.367,361.364z"/>
						</g>
					</g>
				</g>
				<g id="XMLID_18405_">
					<g id="XMLID_18406_">
						<g id="XMLID_18407_">
							<path style="fill-rule:evenodd;clip-rule:evenodd;fill:#37474F;" d="M216.917,359.241l19.355-11.174
								c4.803,2.773,7.564,5.902,8.627,9.775l-27.624,2.526C215.759,360.507,215.599,360.002,216.917,359.241z"/>
							<path style="fill:#FAFAFA;" d="M216.825,361.394c-0.626,0-1.488-0.14-1.744-0.949c-0.348-1.097,0.92-1.829,1.337-2.069
								l19.355-11.175c0.309-0.178,0.69-0.178,1,0c5.062,2.923,7.951,6.221,9.092,10.377c0.078,0.285,0.026,0.591-0.143,0.834
								c-0.169,0.243-0.436,0.399-0.73,0.427l-27.624,2.526C217.241,361.376,217.047,361.394,216.825,361.394z M236.267,349.224
								l-17.294,9.985l24.584-2.249C242.409,353.991,240.059,351.502,236.267,349.224z"/>
						</g>
					</g>
				</g>
			</g>
		</g>
		<path id="XMLID_17390_" style="opacity:0.1;" d="M169.776,350.269l62.697,36.196l42.874-24.754
			c1.051-0.609,1.05-1.594-0.002-2.202l-55.072-31.796l-3.804-2.197c-1.055-0.609-2.765-0.609-3.819,0L169.776,350.269z"/>
	</g>
	<g id="XMLID_18498_">
		<g id="XMLID_18336_">
			<g id="XMLID_18276_">
				<g>
					<path id="XMLID_18279_" style="fill:#27DEBF;" d="M230.543,294.491l-58.875,33.992c-1.055,0.609-1.91,2.09-1.91,3.307v0.761
						c0,1.218,0.855,2.698,1.91,3.307l58.876,33.992c1.055,0.609,2.764,0.609,3.819,0l58.875-33.992
						c1.055-0.609,1.91-2.09,1.91-3.307l0-0.761c0-1.218-0.855-2.698-1.909-3.307l-58.876-33.992
						C233.307,293.882,231.597,293.882,230.543,294.491z"/>
					<path id="XMLID_7_" style="opacity:0.7;fill:#FAFAFA;" d="M230.543,294.491l-58.875,33.992c-1.055,0.609-1.91,2.09-1.91,3.307
						v0.761c0,1.218,0.855,2.698,1.91,3.307l58.876,33.992c1.055,0.609,2.764,0.609,3.819,0l58.875-33.992
						c1.055-0.609,1.91-2.09,1.91-3.307l0-0.761c0-1.218-0.855-2.698-1.909-3.307l-58.876-33.992
						C233.307,293.882,231.597,293.882,230.543,294.491z"/>
				</g>
				<g>
					<path id="XMLID_18278_" style="fill:#27DEBF;" d="M174.236,327l-2.569,1.483c-1.055,0.609-1.909,2.09-1.909,3.307v0.761
						c0,1.218,0.855,2.698,1.909,3.307l58.876,33.992c0.527,0.304,1.219,0.457,1.909,0.457v-9.696L174.236,327z"/>
					<path id="XMLID_11_" style="opacity:0.6;fill:#FAFAFA;" d="M174.236,327l-2.569,1.483c-1.055,0.609-1.909,2.09-1.909,3.307
						v0.761c0,1.218,0.855,2.698,1.909,3.307l58.876,33.992c0.527,0.304,1.219,0.457,1.909,0.457v-9.696L174.236,327z"/>
				</g>
				<g>
					<path id="XMLID_18277_" style="fill:#27DEBF;" d="M230.543,294.491l-58.875,33.992c-1.055,0.609-1.055,1.596,0,2.205
						l58.876,33.992c1.055,0.609,2.764,0.609,3.819,0l58.875-33.992c1.055-0.609,1.055-1.596,0-2.205l-58.876-33.992
						C233.307,293.882,231.597,293.882,230.543,294.491z"/>
					<path id="XMLID_8_" style="opacity:0.8;fill:#FAFAFA;" d="M230.543,294.491l-58.875,33.992c-1.055,0.609-1.055,1.596,0,2.205
						l58.876,33.992c1.055,0.609,2.764,0.609,3.819,0l58.875-33.992c1.055-0.609,1.055-1.596,0-2.205l-58.876-33.992
						C233.307,293.882,231.597,293.882,230.543,294.491z"/>
				</g>
			</g>
			<g id="XMLID_18332_">
				<path id="XMLID_18335_" style="fill:#455A64;" d="M205.583,319.223l12.081-2.325c0.747-0.144,1.353,0.357,1.353,1.118l0,2.415
					c0,0.761,0.613,1.307,1.369,1.22l19.653-2.269c0.756-0.087,1.167,0.425,0.918,1.144l-3.576,10.323
					c-0.249,0.719,0.166,1.302,0.927,1.302h15.157c0.761,0,1.176,0.583,0.927,1.302l-4.027,11.625l-17.913,10.342l-44.782-25.855
					L205.583,319.223z"/>
				<path id="XMLID_18333_" style="fill:#27DEBF;" d="M232.452,355.419l13.434-7.756l4.027-11.625
					c0.248-0.716-0.158-1.185-0.902-1.042l-24.163,4.65c-0.744,0.143-1.15-0.326-0.902-1.042l3.576-10.323
					c0.248-0.716-0.165-1.231-0.918-1.144l-19.653,2.269c-0.753,0.087-1.059-0.379-0.68-1.035l3.1-5.37
					c0.379-0.656,0.08-1.076-0.664-0.933l-12.081,2.325l-8.956,5.171L232.452,355.419z"/>
			</g>
		</g>
		<path id="XMLID_17409_" style="opacity:0.1;" d="M187.669,319.244l62.697,36.196l42.874-24.754
			c1.051-0.609,1.05-1.594-0.002-2.202l-55.073-31.796l-3.804-2.197c-1.055-0.609-2.765-0.609-3.819,0L187.669,319.244z"/>
	</g>
	<g id="XMLID_18275_">
		<g id="XMLID_18274_">
			<g>
				<path id="XMLID_18221_" style="fill:#27DEBF;" d="M248.455,263.465l-58.875,33.992c-1.055,0.609-1.91,2.09-1.91,3.307v0.761
					c0,1.218,0.855,2.698,1.91,3.307l58.876,33.992c1.055,0.609,2.764,0.609,3.819,0l58.875-33.992
					c1.055-0.609,1.91-2.09,1.91-3.307l0-0.761c0-1.218-0.855-2.698-1.909-3.307l-58.875-33.992
					C251.219,262.856,249.509,262.856,248.455,263.465z"/>
				<path id="XMLID_9_" style="opacity:0.7;fill:#FAFAFA;" d="M248.455,263.465l-58.875,33.992c-1.055,0.609-1.91,2.09-1.91,3.307
					v0.761c0,1.218,0.855,2.698,1.91,3.307l58.876,33.992c1.055,0.609,2.764,0.609,3.819,0l58.875-33.992
					c1.055-0.609,1.91-2.09,1.91-3.307l0-0.761c0-1.218-0.855-2.698-1.909-3.307l-58.875-33.992
					C251.219,262.856,249.509,262.856,248.455,263.465z"/>
			</g>
			<g>
				<path id="XMLID_18260_" style="fill:#27DEBF;" d="M192.148,295.974l-2.569,1.483c-1.054,0.609-1.909,2.09-1.909,3.307v0.761
					c0,1.218,0.855,2.698,1.909,3.307l58.876,33.992c0.527,0.304,1.219,0.457,1.909,0.457v-9.696L192.148,295.974z"/>
				<path id="XMLID_10_" style="opacity:0.6;fill:#FAFAFA;" d="M192.148,295.974l-2.569,1.483c-1.054,0.609-1.909,2.09-1.909,3.307
					v0.761c0,1.218,0.855,2.698,1.909,3.307l58.876,33.992c0.527,0.304,1.219,0.457,1.909,0.457v-9.696L192.148,295.974z"/>
			</g>
			<g>
				<path id="XMLID_18228_" style="fill:#27DEBF;" d="M248.455,263.465l-58.875,33.992c-1.055,0.609-1.055,1.596,0,2.205
					l58.876,33.992c1.055,0.609,2.764,0.609,3.819,0l58.875-33.992c1.055-0.609,1.055-1.596,0-2.205l-58.875-33.992
					C251.219,262.856,249.509,262.856,248.455,263.465z"/>
				<path id="XMLID_12_" style="opacity:0.8;fill:#FAFAFA;" d="M248.455,263.465l-58.875,33.992c-1.055,0.609-1.055,1.596,0,2.205
					l58.876,33.992c1.055,0.609,2.764,0.609,3.819,0l58.875-33.992c1.055-0.609,1.055-1.596,0-2.205l-58.875-33.992
					C251.219,262.856,249.509,262.856,248.455,263.465z"/>
			</g>
		</g>
		<g id="XMLID_18240_">
			<path id="XMLID_18239_" style="fill:#27DEBF;" d="M209.917,294.788l29.461-16.994c0.527-0.304,1.382-0.304,1.91,0.001
				l4.767,2.754c0.527,0.304,0.527,0.798,0,1.102l-29.461,16.994c-0.527,0.304-1.382,0.304-1.91-0.001l-4.767-2.753
				C209.389,295.586,209.389,295.092,209.917,294.788z"/>
			<path id="XMLID_18241_" style="fill:#455A64;" d="M223.351,302.544l20.482-11.825c0.527-0.304,1.382-0.304,1.909,0l4.767,2.754
				c0.527,0.304,0.527,0.798,0,1.103L230.027,306.4c-0.527,0.304-1.382,0.304-1.909,0l-4.767-2.753
				C222.824,303.342,222.824,302.848,223.351,302.544z"/>
			<path id="XMLID_18272_" style="fill:#37474F;" d="M236.785,310.3l33.916-19.581c0.527-0.304,1.382-0.304,1.909,0l4.767,2.754
				c0.527,0.304,0.527,0.798,0,1.103l-33.916,19.581c-0.527,0.305-1.382,0.304-1.909,0l-4.767-2.754
				C236.258,311.098,236.258,310.604,236.785,310.3z"/>
			<path id="XMLID_18273_" style="fill:#263238;" d="M250.22,318.056l16.003-9.24c0.527-0.304,1.382-0.304,1.909,0l4.767,2.754
				c0.527,0.305,0.527,0.798,0,1.103l-16.003,9.239c-0.527,0.304-1.382,0.304-1.909,0l-4.767-2.753
				C249.692,318.854,249.692,318.361,250.22,318.056z"/>
		</g>
	</g>
</g>
<g id="Plants">
	<g id="XMLID_1023_">
		<g id="XMLID_1021_">
			<g>
				<path id="XMLID_1020_" style="fill:#27DEBF;" d="M375.926,315.905c-0.073-0.236,1.903-26.418,14.752-39.094
					c12.848-12.676,24.341-8.836,26.826-4.547c2.485,4.289,0.657,6.682-9.044,13.145c-8.803,5.864-19.733,14.023-24.97,31.248
					L375.926,315.905z"/>
				<path id="XMLID_23_" style="opacity:0.2;" d="M375.926,315.905c-0.073-0.236,1.903-26.418,14.752-39.094
					c12.848-12.676,24.341-8.836,26.826-4.547c2.485,4.289,0.657,6.682-9.044,13.145c-8.803,5.864-19.733,14.023-24.97,31.248
					L375.926,315.905z"/>
			</g>
			<g id="XMLID_1022_">
				<path style="fill:#FAFAFA;" d="M379.089,316.72c-0.024,0-0.049-0.002-0.073-0.005c-0.273-0.04-0.462-0.294-0.423-0.567
					c4.222-28.901,24.139-43.582,33.367-44.692c0.27-0.043,0.522,0.161,0.556,0.436c0.033,0.274-0.162,0.523-0.437,0.556
					c-8.972,1.08-28.352,15.472-32.496,43.845C379.546,316.541,379.333,316.72,379.089,316.72z"/>
			</g>
		</g>
		<g id="XMLID_1015_">
			<path id="XMLID_1016_" style="fill:#27DEBF;" d="M381.267,342.342c2.369-1.56,5.818-2.944,9.789-0.557
				c3.971,2.388,9.652,2.589,12.865,0.557c3.214-2.033,4.36-6.915,4.068-10.333c-0.292-3.418,0.883-6.722,4.543-6.722
				c3.66,0,10.55,0.256,13.088-3.837c2.538-4.092-3.193-8.49-4.448-9.947c-2.208-2.564,0.314-5.897,3.518-8.753
				c3.518-3.135,4.481-9.81-1.891-10.804c-6.371-0.995-16.108,4.782-21.087,6.738c-7.518,2.953-7.089-1.079-11.738-1.35
				c-5.625-0.328-7.352,3.622-7.782,8.652c-0.485,5.678-3.05,7.302-3.05,7.302L381.267,342.342z"/>
			<g id="XMLID_1017_">
				<path style="fill:#FAFAFA;" d="M380.432,331.416c-0.058,0-0.117-0.01-0.174-0.031c-0.259-0.097-0.391-0.384-0.295-0.643
					c3.72-10.009,27.5-30.566,41.039-35.478c0.261-0.095,0.547,0.039,0.641,0.299c0.095,0.26-0.04,0.547-0.299,0.641
					c-13.061,4.738-36.872,25.279-40.443,34.887C380.825,331.292,380.635,331.416,380.432,331.416z"/>
			</g>
			<g id="XMLID_1018_">
				<path style="fill:#FAFAFA;" d="M414.945,316.774c-0.089,0-0.178-0.023-0.259-0.072c-4.641-2.809-15.463-3.934-20.315-2.115
					c-0.256,0.1-0.547-0.034-0.644-0.292c-0.098-0.259,0.033-0.547,0.292-0.643c5.166-1.941,16.253-0.79,21.185,2.195
					c0.236,0.143,0.312,0.45,0.169,0.686C415.279,316.689,415.114,316.774,414.945,316.774z"/>
			</g>
			<g id="XMLID_1019_">
				<path style="fill:#FAFAFA;" d="M391.369,317.298c-0.271,0-0.494-0.217-0.5-0.489c-0.199-9.386-2.69-13.659-2.716-13.701
					c-0.142-0.237-0.064-0.544,0.172-0.686c0.235-0.139,0.542-0.066,0.685,0.171c0.108,0.179,2.653,4.508,2.859,14.195
					c0.006,0.276-0.213,0.505-0.489,0.511C391.376,317.298,391.372,317.298,391.369,317.298z"/>
			</g>
		</g>
	</g>
	<g>
		<g id="XMLID_18617_">
			<g>
				<path id="XMLID_18620_" style="fill:#27DEBF;" d="M129.028,272.407c-0.484-6.02-5.125-16.29-12-23.605
					s-17.874-10.838-24.659-7.89c-6.319,2.745-4.93,11.214,3.408,16.229c8.338,5.015,20.76,11.158,25.012,20.645l8.238,11.396
					V272.407z"/>
				<path id="XMLID_24_" style="opacity:0.2;" d="M129.028,272.407c-0.484-6.02-5.125-16.29-12-23.605s-17.874-10.838-24.659-7.89
					c-6.319,2.745-4.93,11.214,3.408,16.229c8.338,5.015,20.76,11.158,25.012,20.645l8.238,11.396V272.407z"/>
			</g>
			<g id="XMLID_18618_">
				<path id="XMLID_18619_" style="fill:#FAFAFA;" d="M129.026,283.191c0.028,0,0.057-0.001,0.085-0.006
					c0.345-0.045,0.586-0.362,0.539-0.706c-3.17-23.517-27.28-37.969-34.506-39.346c-0.34-0.065-0.669,0.159-0.736,0.5
					c-0.065,0.341,0.159,0.671,0.5,0.736c7.01,1.335,30.41,15.388,33.496,38.277C128.446,282.962,128.717,283.191,129.026,283.191z"
					/>
			</g>
		</g>
		<g id="XMLID_17395_">
			<path id="XMLID_17265_" style="fill:#27DEBF;" d="M131.145,292.399c0,0-3.917,4.512-11.308,6.691
				c-7.39,2.179-11.191-0.995-11.191-0.995s2.048-7.465,6.074-10.009c0,0-7.072,2.428-12.396,7.08c0,0-4.599,0.671-7.35-6.122
				c0,0,2.178-4.588,11.039-8.069c0,0-5.755-0.675-13.519,2.42c-0.571,0.318-4.324-8.44-5.647-12.533
				c-1.324-4.094,0.368-4.269,3.524-5.569c3.156-1.3,14.221-3.301,16.503-1.77c2.282,1.532,4.124,7.546,4.124,7.546
				s1.504-3.736,0.63-6.781c0,0,3.139-1.543,6.979-0.741c3.841,0.801,4.622,3.296,5.489,5.849c0.866,2.553,2.022,7.768,0.836,10.321
				c0,0,2.769-3.303,0.725-11.232c0,0,3.882,1.433,6.352,4.825C134.482,276.702,135.223,286.324,131.145,292.399z"/>
			<g id="XMLID_17410_">
				<path style="fill:#FAFAFA;" d="M131.145,292.898c-0.163,0-0.323-0.08-0.419-0.227c-7.728-11.841-32.25-23.572-40.554-24.091
					c-0.275-0.018-0.485-0.255-0.468-0.53c0.017-0.275,0.257-0.495,0.53-0.468c8.464,0.528,33.457,12.479,41.33,24.542
					c0.151,0.231,0.085,0.541-0.146,0.692C131.334,292.872,131.239,292.898,131.145,292.898z"/>
			</g>
		</g>
	</g>
</g>
<g id="Character_2">
	<g id="XMLID_18401_">
		<g id="XMLID_18432_">
			
				<ellipse id="XMLID_18535_" transform="matrix(0.242 -0.9703 0.9703 0.242 125.5912 458.2329)" style="fill:#263238;" cx="356.063" cy="148.739" rx="10.843" ry="10.843"/>
			<rect id="XMLID_18533_" x="374.391" y="332.215" style="fill:#FFA8A7;" width="7.638" height="13.075"/>
			<polygon id="XMLID_18532_" style="fill:#FFA8A7;" points="355.547,331.518 347.914,331.78 347.531,317.943 355.547,317.68 			"/>
			<path id="XMLID_18531_" style="fill:#455A64;" d="M381.528,220.149c0,7.294,0.943,59.911,0.943,59.911
				c0.178,2.099,2.146,5.968,1.72,14.029c-0.579,10.95-1.835,44.664-1.835,44.664s-3.708,2.167-8.504,0.168
				c0,0-6.74-44.794-8.108-55.645c-1.194-9.47-3.221-35.198-3.221-35.198l-4.14,30.917c0,0,1.408,5.648,0.947,12.138
				c-0.357,5.019-3.298,36.098-3.298,36.098s-3.595,2.439-8.819,0.675c0,0-3.86-44.307-3.948-48.912
				c-0.101-5.25,2.54-58.846,2.54-58.846H381.528z"/>
			<g>
				<path id="XMLID_18436_" style="fill:#27DEBF;" d="M346.854,175.757c-4.478,3.682-12.567,11.152-12.567,11.152l12.622,6.946
					l8.015-21.526C354.924,172.329,351.778,171.707,346.854,175.757z"/>
				<path id="XMLID_19_" style="opacity:0.2;" d="M346.854,175.757c-4.478,3.682-12.567,11.152-12.567,11.152l12.622,6.946
					l8.015-21.526C354.924,172.329,351.778,171.707,346.854,175.757z"/>
			</g>
			<path id="XMLID_18530_" style="fill:#27DEBF;" d="M378.93,177.577c0,0,2.858,2.861,2.858,9.791v14.965l0.219,28.258
				c-10.963,5.778-24.807,6.114-36.503-2.427c0,0,0.56-36.322,0.56-42.272c0-5.949,3.316-13.683,12.443-14.213l11.783,2.737
				L378.93,177.577z"/>
			<g id="XMLID_18479_">
				<g id="XMLID_18515_">
					<path id="XMLID_18524_" style="fill:#263238;" d="M374.806,156.448c0,0-1.757,8.255-2.462,9.612
						c-0.705,1.356-2.161,1.742-2.161,1.742l0.123-5.807L374.806,156.448z"/>
					<path id="XMLID_18523_" style="fill:#263238;" d="M372.601,144.622c0,0,1.892-0.324,3.368,1.184
						c1.446,1.479,0.638,6.108-1.163,10.642l-3.31,0.38L372.601,144.622z"/>
					<path id="XMLID_18522_" style="fill:#FFA8A7;" d="M370.504,156.831c0.664,0.396,1.61-0.878,2.429-1.735
						c0.818-0.856,3.49-2.026,4.823,0.782c1.358,2.862-1.177,6.644-3.28,7.304c-3.625,1.138-4.169-1.187-4.169-1.187l-0.277,13.076
						l-12.564,8.284c0,0-0.813-4.549,0.77-8.63l0.01-3.98c0,0-3.284,0.499-4.887,0.251c-2.666-0.412-4.343-2.516-5.152-5.401
						c-1.299-4.635-1.792-8.377-0.69-17.493c1.208-9.991,12.829-10.095,19.104-6.145
						C372.897,145.906,370.504,156.831,370.504,156.831z"/>
					<g>
						<g>
							<path id="XMLID_18521_" style="fill:#27DEBF;" d="M357.467,183.355l12.605-10.263l0.035-1.646c0,0,2.928,0.583,3.306,4.678
								l-7.652,11.654l-3.237-6.073L357.467,183.355z"/>
							<path id="XMLID_18520_" style="fill:#27DEBF;" d="M358.246,170.745c0,0-2.724,0.362-3.921,2.346
								c-1.196,1.984-3.375,10.263-3.375,10.263l4.074-3.144l2.441,3.144c-0.256-2.524-0.019-5.388,0.77-8.63L358.246,170.745z"/>
						</g>
						<g style="opacity:0.2;">
							<path id="XMLID_21_" d="M357.467,183.355l12.605-10.263l0.035-1.646c0,0,2.928,0.583,3.306,4.678l-7.652,11.654l-3.237-6.073
								L357.467,183.355z"/>
							<path id="XMLID_20_" d="M358.246,170.745c0,0-2.724,0.362-3.921,2.346c-1.196,1.984-3.375,10.263-3.375,10.263l4.074-3.144
								l2.441,3.144c-0.256-2.524-0.019-5.388,0.77-8.63L358.246,170.745z"/>
						</g>
					</g>
					<path id="XMLID_18518_" style="fill:#263238;" d="M370.504,157.948c0.334,0.006,1.603-2.1,2.429-2.852
						c1.145-1.042-0.332-10.474-0.332-10.474s1.1-2.344-1.105-4.771c-1.568-1.726-4.189-1.918-8.664-2.621
						c-2.348-0.369-5.907-1.026-8.251-1.462c-2.8-0.52-5.117-1.071-7.094,0.646c-1.538,1.337-2.201,3.699-1.372,5.561
						c0.194,0.437,0.475,0.831,0.795,1.187c0.567,0.63,1.208,1.126,2.015,1.388c0,0,1.221,1.083,5.467,1.6
						c4.246,0.517,10.861-0.099,11.765-0.223c1.231-0.169,1.494,1.025,2.158,4.285C368.899,153.075,369.382,157.926,370.504,157.948
						z"/>
					<path id="XMLID_18517_" style="fill:#263238;" d="M372.595,145.356l4.013-2.154c-0.569-1.15-1.929-1.6-3.038-1.005
						C372.462,142.792,372.025,144.206,372.595,145.356z"/>
					<path id="XMLID_18516_" style="fill:#F28F8F;" d="M358.246,170.745c0,0,5.951-1.199,8.031-2.305
						c1.393-0.74,2.539-2.023,2.876-2.846c0,0-0.39,1.766-1.634,3.356c-1.522,1.945-9.274,3.378-9.274,3.378L358.246,170.745z"/>
				</g>
				<g id="XMLID_18480_">
					<path id="XMLID_18514_" style="fill:#263238;" d="M359.676,155.343c0,0.684,0.534,1.238,1.193,1.236
						c0.659-0.002,1.193-0.558,1.193-1.242c0-0.684-0.534-1.237-1.193-1.236C360.21,154.103,359.676,154.659,359.676,155.343z"/>
					<path id="XMLID_18513_" style="fill:#263238;" d="M360.941,150.841l2.551,1.408c0.376-0.733,0.11-1.643-0.594-2.031
						C362.193,149.829,361.317,150.108,360.941,150.841z"/>
					<path id="XMLID_18512_" style="fill:#F28F8F;" d="M358.785,163.581l-2.723,1.021c0.269,0.78,1.097,1.184,1.849,0.902
						C358.664,165.223,359.055,164.361,358.785,163.581z"/>
					<path id="XMLID_18511_" style="fill:#263238;" d="M349.042,151.834l2.326-1.792c-0.474-0.666-1.38-0.805-2.022-0.31
						C348.704,150.226,348.567,151.167,349.042,151.834z"/>
					<path id="XMLID_18510_" style="fill:#263238;" d="M349.758,155.004c0,0.684,0.534,1.238,1.193,1.236
						c0.658-0.002,1.192-0.558,1.192-1.242c0-0.684-0.534-1.238-1.192-1.236C350.292,153.763,349.758,154.319,349.758,155.004z"/>
					<polygon id="XMLID_18481_" style="fill:#F28F8F;" points="355.834,153.873 355.442,161.045 351.698,159.768 					"/>
				</g>
			</g>
			<path id="XMLID_18478_" style="fill:#263238;" d="M374.391,341.521v-1.092c-0.731,0.318-2.429,6.797-5.459,9.561
				c-2.409,2.197-5.696,4.736-6.532,7.185c-0.87,2.548,4.577,3.954,6.828,3.556c2.615-0.463,7.148-2.305,8.286-4.012
				c1.138-1.707,1.671-4.226,2.595-5.477c0.925-1.251,3.056-2.648,3.556-4.096c0.275-0.796-0.051-2.538-0.437-4.01
				c-0.354-1.351-0.738-2.835-1.199-2.709c-0.001,0.165,0,0.833,0,0.833c-0.555,0.614-2.089,1.224-3.819,1.291
				C377.093,342.595,374.382,342.373,374.391,341.521z"/>
			<path id="XMLID_18477_" style="fill:#263238;" d="M347.833,329.425c-0.397,0.014-0.72,0.573-1.594,1.52
				c-1.057,1.144-2.786,2.379-4.493,3.233c-2.86,1.432-8.42,3.634-10.937,4.768c-1.572,0.708-1.499,2.607,0.127,3.688
				c1.625,1.081,5.548,1.859,10.26,0.806c2.566-0.574,5.907-2.944,8.022-2.816c2.115,0.128,6.071,0.098,7.632-0.978
				c1.561-1.076,0.936-3.374,0.495-5.348c-0.481-2.155-1.084-5.515-1.797-5.368v0.743c-0.918,1.391-5.657,1.956-7.674,0.933
				L347.833,329.425z"/>
			<path id="XMLID_18467_" style="fill:#263238;" d="M362.522,248.078c0,0-6.105-1.72-10.636-6.098c0,0,2.052,3.843,8.155,7.419
				l-1.305,26.951L362.522,248.078z"/>
		</g>
		<g id="XMLID_16756_">
			<g>
				<path id="XMLID_31_" style="fill:#27DEBF;" d="M353.242,270.317l0.66-0.381c1.055-0.609,1.909-2.09,1.909-3.307l0-67.983
					c0-1.218-0.855-2.699-1.909-3.307l-58.876-33.992c-1.055-0.609-2.764-0.609-3.819,0l-0.659,0.381
					c-1.055,0.609-1.909,2.09-1.909,3.307l0,67.984c0,1.218,0.855,2.698,1.909,3.307l58.875,33.992
					C350.478,270.926,352.188,270.926,353.242,270.317z"/>
				<path id="XMLID_16_" style="opacity:0.7;fill:#FAFAFA;" d="M353.242,270.317l0.66-0.381c1.055-0.609,1.909-2.09,1.909-3.307
					l0-67.983c0-1.218-0.855-2.699-1.909-3.307l-58.876-33.992c-1.055-0.609-2.764-0.609-3.819,0l-0.659,0.381
					c-1.055,0.609-1.909,2.09-1.909,3.307l0,67.984c0,1.218,0.855,2.698,1.909,3.307l58.875,33.992
					C350.478,270.926,352.188,270.926,353.242,270.317z"/>
			</g>
			<g>
				<path id="XMLID_16738_" style="fill:#27DEBF;" d="M355.811,232.637v-33.992c0-0.609-0.214-1.284-0.559-1.882l-8.397,4.848
					v67.223l2.569,1.483c1.055,0.609,2.764,0.609,3.818,0l0.662-0.382c1.054-0.609,1.908-2.089,1.908-3.306V232.637z"/>
				<path id="XMLID_17_" style="opacity:0.6;fill:#FAFAFA;" d="M355.811,232.637v-33.992c0-0.609-0.214-1.284-0.559-1.882
					l-8.397,4.848v67.223l2.569,1.483c1.055,0.609,2.764,0.609,3.818,0l0.662-0.382c1.054-0.609,1.908-2.089,1.908-3.306V232.637z"
					/>
			</g>
			<g>
				<path id="XMLID_18370_" style="fill:#27DEBF;" d="M290.548,163.932l58.876,33.992c1.055,0.609,1.909,2.09,1.909,3.307v67.984
					c0,1.218-0.855,1.711-1.909,1.102l-58.875-33.992c-1.055-0.609-1.909-2.09-1.909-3.307l0-67.984
					C288.638,163.816,289.493,163.323,290.548,163.932z"/>
				<path id="XMLID_18_" style="opacity:0.8;fill:#FAFAFA;" d="M290.548,163.932l58.876,33.992c1.055,0.609,1.909,2.09,1.909,3.307
					v67.984c0,1.218-0.855,1.711-1.909,1.102l-58.875-33.992c-1.055-0.609-1.909-2.09-1.909-3.307l0-67.984
					C288.638,163.816,289.493,163.323,290.548,163.932z"/>
			</g>
			<path id="XMLID_16749_" style="opacity:0.5;fill:#FAFAFA;" d="M295.355,225.979c1.835,1.06,4.643,1.269,6.762-3.904
				c2.119-5.173,4.015-9.344,6.609-7.6c1.81,1.217,1.568,2.873,3.191,3.809c2.544,1.469,4.536-4.854,5.434-10.757
				c1.275-8.379,2.51-10.573,4.792-9.311c3.393,1.877,3.102,7.451,3.102,12.574c0,4.589,0,6.978,2.491,7.998
				c1.647,0.675,3.249-3.305,3.908-6.372c0.658-3.067,2.093-4.544,3.565-3.694c1.472,0.85,3.057,2.876,3.134,10.994
				c0.069,7.191,0.186,17.498,0.308,19.754c0.293,5.421,3.444,8.123,5.964,9.578v8.149l-49.259-28.44V225.979z"/>
			<g id="XMLID_16335_">
				<path style="fill:#455A64;" d="M344.365,249.482c-3.887-2.244-5.977-5.603-6.214-9.984c-0.128-2.37-0.248-13.408-0.309-19.776
					c-0.076-7.934-1.582-9.815-2.885-10.566c-0.336-0.195-0.652-0.223-0.967-0.084c-0.774,0.344-1.469,1.633-1.858,3.449
					c-0.55,2.561-1.735,5.837-3.268,6.646c-0.438,0.23-0.892,0.259-1.318,0.084c-2.802-1.148-2.802-3.746-2.802-8.461l0.003-1.13
					c0.02-4.626,0.039-9.409-2.848-11.006c-0.673-0.373-1.02-0.279-1.226-0.18c-1.38,0.68-2.237,5.235-2.829,9.128
					c-0.351,2.304-1.702,9.921-4.369,11.204c-0.593,0.283-1.218,0.252-1.81-0.089c-0.927-0.535-1.323-1.269-1.705-1.979
					c-0.362-0.671-0.704-1.304-1.515-1.849c-0.45-0.304-0.852-0.389-1.258-0.263c-1.692,0.515-3.379,4.631-4.609,7.638
					c-1.037,2.532-2.354,4.086-3.915,4.619c-1.13,0.385-2.36,0.221-3.56-0.471l0.5-0.866c0.657,0.38,1.667,0.757,2.736,0.391
					c1.275-0.435,2.39-1.799,3.313-4.051c1.755-4.285,3.255-7.611,5.244-8.216c0.696-0.21,1.406-0.081,2.108,0.39
					c1.015,0.682,1.451,1.491,1.836,2.204c0.346,0.641,0.644,1.193,1.325,1.587c0.306,0.178,0.586,0.195,0.876,0.054
					c1.434-0.69,2.968-4.89,3.814-10.453c0.972-6.389,1.918-9.157,3.376-9.874c0.638-0.314,1.34-0.247,2.151,0.202
					c3.404,1.883,3.384,6.968,3.363,11.885l-0.003,1.126c0,4.561,0,6.642,2.181,7.535c0.104,0.042,0.249,0.075,0.473-0.043
					c0.948-0.501,2.133-3.067,2.756-5.972c0.471-2.191,1.334-3.666,2.432-4.153c0.608-0.27,1.256-0.225,1.872,0.131
					c1.628,0.939,3.304,3.031,3.385,11.422c0.061,6.36,0.181,17.382,0.307,19.732c0.221,4.079,2.09,7.079,5.716,9.172
					L344.365,249.482z"/>
			</g>
			<path id="XMLID_16614_" style="opacity:0.4;fill:#FAFAFA;" d="M295.355,214.474c0.019,1.756,3.47,11.03,11.288,11.504
				c7.817,0.475,10.7-8.233,14.488-6.15c3.788,2.083,3.078,8.335,6.605,10.464s7.315-9.805,11.576-7.91s2.776,14.946,5.303,17.331
				v17.484l-49.259-28.44V214.474z"/>
			<g id="XMLID_16713_">
				<path style="fill:#27DEBF;" d="M344.272,240.078c-1.212-1.143-1.557-4.09-1.956-7.501c-0.481-4.109-1.027-8.767-3.207-9.737
					c-1.828-0.814-3.751,1.674-5.611,4.081c-1.926,2.492-3.921,5.069-6.021,3.8c-1.875-1.132-2.633-3.283-3.365-5.363
					c-0.746-2.117-1.45-4.117-3.223-5.092c-1.38-0.758-2.618,0.214-4.685,2c-2.311,1.995-5.182,4.487-9.592,4.211
					c-7.895-0.479-11.733-9.764-11.757-11.998l1-0.011c0.016,1.477,3.195,10.548,10.817,11.011c3.986,0.234,6.703-2.093,8.878-3.97
					c2.021-1.744,3.764-3.249,5.821-2.119c2.106,1.158,2.908,3.434,3.684,5.636c0.705,2.001,1.371,3.892,2.939,4.838
					c1.33,0.805,2.976-1.311,4.712-3.556c2-2.584,4.269-5.511,6.809-4.383c2.701,1.202,3.256,5.946,3.794,10.535
					c0.345,2.948,0.702,5.996,1.648,6.89L344.272,240.078z"/>
			</g>
			<path id="XMLID_16754_" style="fill:#27DEBF;" d="M299.215,175.19c0.895,0.516,1.62,1.773,1.62,2.806s-0.725,1.452-1.62,0.935
				c-0.895-0.517-1.62-1.773-1.62-2.806C297.595,175.092,298.32,174.673,299.215,175.19z"/>
			<path id="XMLID_16755_" style="fill:#27DEBF;" d="M302.073,178.353c0,0.714,0.534,1.601,1.193,1.982l11.048,6.379
				c0.659,0.381,1.193,0.11,1.193-0.604c0-0.714-0.535-1.601-1.194-1.982l-11.047-6.378
				C302.607,177.369,302.073,177.639,302.073,178.353z"/>
			<path id="XMLID_16758_" style="fill:#455A64;" d="M299.215,182.946c0.895,0.516,1.62,1.773,1.62,2.806
				c0,1.033-0.725,1.452-1.62,0.935c-0.895-0.517-1.62-1.773-1.62-2.806C297.595,182.848,298.32,182.43,299.215,182.946z"/>
			<path id="XMLID_16757_" style="fill:#27DEBF;" d="M302.073,186.109c0,0.714,0.534,1.601,1.193,1.982l11.048,6.379
				c0.659,0.38,1.193,0.11,1.193-0.604c0-0.714-0.535-1.601-1.194-1.982l-11.047-6.378
				C302.607,185.125,302.073,185.395,302.073,186.109z"/>
		</g>
		<g id="XMLID_18434_">
			<g id="XMLID_18527_">
				<path id="XMLID_18529_" style="fill:#FFA8A7;" d="M391.188,222.295c3.917-2.721,2.599-5.191,1.346-9.824
					c-8.532-31.544-9.875-33.302-13.604-34.895l-2.987,12.411l7.974,25.844c-5.97,4.237-12.111,7.113-17.839,8.366
					c-1.015,0.222-3.074,0.09-3.979-0.418c-2.429-1.365-3.801-1.366-6.289-2.034l0,4.069c0,0-2.895,0.486-6.696-0.222
					c-5.151-0.96-7.41,0.108-4.256,6.005c1.976,3.696,5.814,4.915,15.43,3.255c2.77-0.478,6.982-1.556,10.357-2.699
					C379.433,229.178,386.949,225.24,391.188,222.295z"/>
			</g>
			<g>
				<path id="XMLID_18433_" style="fill:#27DEBF;" d="M378.93,177.577c0,0-3.666,2.301-4.454,8.087
					c-0.788,5.786,5.557,20.914,5.557,20.914s6.653,0.166,10.382-4.262c0,0-4.669-15.549-5.623-18.803
					C383.837,180.259,380.346,178.095,378.93,177.577z"/>
				<path id="XMLID_22_" style="opacity:0.2;" d="M378.93,177.577c0,0-3.666,2.301-4.454,8.087
					c-0.788,5.786,5.557,20.914,5.557,20.914s6.653,0.166,10.382-4.262c0,0-4.669-15.549-5.623-18.803
					C383.837,180.259,380.346,178.095,378.93,177.577z"/>
			</g>
		</g>
		<path id="XMLID_18435_" style="fill:#FFA8A7;" d="M288.638,184.092l0.001,4.592c0,0,2.486,3.781,5.153,5.17
			s2.65,6.972-0.675,7.757c-3.325,0.785-7.885-3.312-8.272-5.567C284.458,193.79,285.302,183.849,288.638,184.092z"/>
	</g>
</g>
<g id="Character_1">
	<g id="XMLID_18494_">
		<g id="XMLID_1025_">
			<path id="XMLID_18626_" style="fill:#FFA8A7;" d="M150.722,133.72l24.58-0.639c0.865-0.74,5.767-6.588,5.767-6.588
				s13.461-1.726,13.542-1.237c0.081,0.488-13.242,14.736-14.559,16.173c-0.729,0.796-1.397,1.432-3.144,1.537
				c-3.484,0.209-22.676,1.415-22.676,1.415L150.722,133.72z"/>
		</g>
		<g id="XMLID_30_">
			<g id="XMLID_16864_">
				<g>
					<path id="XMLID_16781_" style="fill:#27DEBF;" d="M174.411,205.318l-0.66-0.381c-1.054-0.609-1.909-2.09-1.909-3.307l0-67.983
						c0-1.218,0.855-2.699,1.91-3.307l58.876-33.992c1.054-0.609,2.764-0.609,3.819,0l0.659,0.381c1.055,0.609,1.91,2.09,1.91,3.307
						l0,67.984c0,1.218-0.855,2.699-1.91,3.307l-58.875,33.992C177.176,205.927,175.466,205.927,174.411,205.318z"/>
					<path id="XMLID_13_" style="opacity:0.7;fill:#FAFAFA;" d="M174.411,205.318l-0.66-0.381c-1.054-0.609-1.909-2.09-1.909-3.307
						l0-67.983c0-1.218,0.855-2.699,1.91-3.307l58.876-33.992c1.054-0.609,2.764-0.609,3.819,0l0.659,0.381
						c1.055,0.609,1.91,2.09,1.91,3.307l0,67.984c0,1.218-0.855,2.699-1.91,3.307l-58.875,33.992
						C177.176,205.927,175.466,205.927,174.411,205.318z"/>
				</g>
				<g>
					<path id="XMLID_16760_" style="fill:#27DEBF;" d="M171.842,167.638v-33.992c0-0.609,0.214-1.284,0.559-1.882l8.397,4.848
						v67.223l-2.569,1.483c-1.055,0.609-2.764,0.609-3.818,0l-0.662-0.382c-1.054-0.609-1.908-2.089-1.908-3.306V167.638z"/>
					<path id="XMLID_14_" style="opacity:0.6;fill:#FAFAFA;" d="M171.842,167.638v-33.992c0-0.609,0.214-1.284,0.559-1.882
						l8.397,4.848v67.223l-2.569,1.483c-1.055,0.609-2.764,0.609-3.818,0l-0.662-0.382c-1.054-0.609-1.908-2.089-1.908-3.306
						V167.638z"/>
				</g>
				<g>
					<path id="XMLID_16759_" style="fill:#27DEBF;" d="M237.106,98.933l-58.876,33.992c-1.055,0.609-1.91,2.09-1.91,3.307v67.984
						c0,1.218,0.855,1.711,1.91,1.102l58.875-33.992c1.055-0.609,1.909-2.09,1.91-3.307l0-67.984
						C239.015,98.818,238.16,98.324,237.106,98.933z"/>
					<path id="XMLID_15_" style="opacity:0.8;fill:#FAFAFA;" d="M237.106,98.933l-58.876,33.992c-1.055,0.609-1.91,2.09-1.91,3.307
						v67.984c0,1.218,0.855,1.711,1.91,1.102l58.875-33.992c1.055-0.609,1.909-2.09,1.91-3.307l0-67.984
						C239.015,98.818,238.16,98.324,237.106,98.933z"/>
				</g>
			</g>
			<g id="XMLID_17093_">
				<path id="XMLID_17061_" style="fill:#27DEBF;" d="M197.198,163.294c0-7.71,4.688-16.666,10.47-20.005v-8.431
					c-5.194,2.999-9.782,8.566-13.051,15.835c-5.837,12.98-4.725,26.438,2.482,30.059l3.98-8.852
					C198.713,170.707,197.198,167.674,197.198,163.294z"/>
				<path id="XMLID_16943_" style="fill:#455A64;" d="M207.668,134.858v8.431c5.782-3.338,10.47,0.205,10.47,7.915
					s-4.688,16.666-10.47,20.005c-2.497,1.442-4.789,1.598-6.588,0.691l-3.98,8.852c3.171,1.593,6.488,1.244,10.568-1.112
					c9.275-5.355,16.793-19.721,16.793-32.087C224.462,135.187,216.943,129.503,207.668,134.858z"/>
				<path id="XMLID_17269_" style="fill:#263238;" d="M207.668,179.64c9.275-5.355,16.793-19.721,16.793-32.087l-6.326,3.722
					c-0.029,7.694-4.703,16.605-10.467,19.934c-2.497,1.442-4.789,1.598-6.588,0.691l-3.98,8.852
					C200.271,182.345,203.587,181.996,207.668,179.64z"/>
			</g>
			<g id="XMLID_17354_">
				<g id="XMLID_18444_">
					<path id="XMLID_18446_" style="fill:#27DEBF;" d="M180.799,137.316c-0.895,0.517-1.62,1.773-1.62,2.806s0.725,1.452,1.62,0.935
						c0.895-0.517,1.62-1.773,1.62-2.806C182.419,137.218,181.694,136.8,180.799,137.316z"/>
					<path id="XMLID_18445_" style="fill:#27DEBF;" d="M197.1,129.915c0,0.714-0.534,1.601-1.193,1.982l-11.048,6.379
						c-0.659,0.38-1.193,0.11-1.193-0.604c0-0.714,0.535-1.601,1.194-1.982l11.047-6.378
						C196.565,128.931,197.1,129.201,197.1,129.915z"/>
				</g>
				<g id="XMLID_18441_">
					<path id="XMLID_18443_" style="fill:#455A64;" d="M199.664,126.378c-0.895,0.517-1.62,1.773-1.62,2.806
						c0,1.033,0.725,1.452,1.62,0.935c0.895-0.517,1.62-1.773,1.62-2.806S200.558,125.861,199.664,126.378z"/>
					<path id="XMLID_18442_" style="fill:#27DEBF;" d="M215.964,118.977c0,0.714-0.534,1.601-1.193,1.982l-11.048,6.379
						c-0.659,0.38-1.193,0.11-1.193-0.604c0-0.714,0.535-1.601,1.194-1.982l11.047-6.378
						C215.43,117.993,215.964,118.263,215.964,118.977z"/>
				</g>
				<g id="XMLID_18438_">
					<path id="XMLID_18440_" style="fill:#37474F;" d="M218.528,115.439c-0.895,0.517-1.62,1.773-1.62,2.806s0.725,1.452,1.62,0.935
						c0.895-0.517,1.62-1.773,1.62-2.806C220.148,115.342,219.423,114.923,218.528,115.439z"/>
					<path id="XMLID_18439_" style="fill:#27DEBF;" d="M234.829,108.039c0,0.714-0.534,1.601-1.193,1.982l-11.048,6.379
						c-0.659,0.381-1.193,0.11-1.193-0.604c0-0.714,0.535-1.601,1.194-1.982l11.047-6.378
						C234.294,107.054,234.829,107.325,234.829,108.039z"/>
				</g>
			</g>
		</g>
		<g id="XMLID_18431_">
			<g id="XMLID_18629_">
				<path id="XMLID_18630_" style="fill:#263238;" d="M160.047,131.704H142.54c-9.669,0-17.507-7.838-17.507-17.507v-2.734
					c0-9.669,7.838-17.507,17.507-17.507l0,0c9.669,0,17.507,7.838,17.507,17.507V131.704z"/>
			</g>
			<path id="XMLID_18628_" style="fill:#263238;" d="M128.972,100.854l-4.238-2.275c0.601-1.214,2.037-1.69,3.208-1.061
				C129.113,98.146,129.574,99.64,128.972,100.854z"/>
			<path id="XMLID_18627_" style="fill:#263238;" d="M129.236,101.335l-4.505,1.685c-0.516-1.253,0.074-2.646,1.318-3.111
				C127.293,99.443,128.72,100.082,129.236,101.335z"/>
			<g id="XMLID_18623_">
				<path id="XMLID_18624_" style="fill:#FFA8A7;" d="M195.169,114.764c-1.998,1.552-4.293,2.523-4.294,3.295
					c-0.001,1.207,1.913,1.289,2.457,0.975l2.851-1.646c0,0,0.916,0.182,3.735,2.014c1.622,1.054,2.469,5.253,4.568,5.055
					c2.186-0.206,4.057-1.222,4.361-2.664c0.4-1.893-0.557-6.113-2.824-7.646C201.028,110.77,197.263,113.138,195.169,114.764z"/>
			</g>
			<g id="XMLID_18528_">
				<g id="XMLID_18553_">
					<g id="XMLID_18590_">
						<path id="XMLID_18591_" style="fill:#263238;" d="M145.235,288.706c-0.04,0.744,0.038,1.296,0.614,2.423
							c0.696,1.362,2.557,3.694,4,5.244c2.139,2.298,5.338,5.013,7.628,7.014c1.275,1.113,1.323,2.794-0.5,3.385
							c-1.823,0.591-5.856,0.844-10.03-1.4c-2.274-1.222-5.519-6.873-7.415-7.729c-2.177-0.982-3.4-1.476-4.135-2.478
							c-1.1-1.5-1.384-2.625-0.444-4.375c1.026-1.909,2.568-4.856,3.203-4.528l-0.197,0.609c0.499,1.558,4.747,3.372,6.925,2.939
							L145.235,288.706z"/>
					</g>
					<path id="XMLID_18586_" style="fill:#FFA8A7;" d="M147.152,281.188c-1.045,3.381-1.756,6.069-1.913,7.548
						c0.051,1.28,0.051,1.28,0.608,2.396c0.697,1.356,2.561,3.689,4.005,5.248c1.04,1.115,2.333,2.332,3.651,3.511
						c0.127,0.203,0.19,0.393,0.19,0.558c0,1.191-2.903,1.508-4.601,1.014c-2.079-0.608-3.841-2.18-5.248-4.031
						c-0.976-1.306-3.182-3.815-4.576-5.691c-0.596-0.786-1.052-1.458-1.217-1.889c-0.494-1.23-0.355-2.104-0.178-2.7l0.089-0.279
						c0.752-2.339,1.215-4.757,1.382-7.208"/>
					<path id="XMLID_18584_" style="fill:#FFA8A7;" d="M127.012,291.309c0.363,2.192,0.544,4.41,0.544,6.632v4.915h7.289v-8.379
						c0.038-0.013,0.076-0.025,0.101-0.051c0,0,0.121-1.648,0.324-4.225"/>
					<g id="XMLID_18582_">
						<path id="XMLID_18583_" style="fill:#37474F;" d="M147.152,281.188c4.022-13.02,12.983-36.32,14.21-40.405
							c1.306-4.36-0.269-42.446-1.334-54.653l-37.961-2.033c-2.89,12.372-0.076,29.053,0.913,39.472
							c0.963,10.141,2.155,21.993,2.155,21.993s-2.966,10.331-2.18,18.557c0.5,5.179,2.951,20.504,4.058,27.191
							c2.753,0.786,5.505,0.417,8.257-1.108c0.462-5.875,1.345-16.577,2.174-23.573c1.255-10.508,1.673-18.177,2.751-24.312
							c1.356-7.656,1.825-37.66,1.825-37.66l4.373,34.035c0,0-2.307,3.891-3.917,10.115c-1.251,4.837-2.594,23.001-3.13,30.857
							C141.263,280.996,143.888,281.478,147.152,281.188z"/>
					</g>
					<path id="XMLID_18581_" style="fill:#263238;" d="M142.019,204.657c0,0,6.937-2.433,10.887-6.06c0,0-2.69,4.644-8.135,7.113
						l-0.057,19.926L142.019,204.657"/>
					<g id="XMLID_18579_">
						<path id="XMLID_18580_" style="fill:#27DEBF;" d="M136.493,134.044c0,0-8.758,0.759-9.992,1.313
							c6.285,6.881-3.273,9.737-3.273,9.737l7.271,24.252c-4.123,5.278-7.656,9.423-8.642,15.714
							c4.418,7.784,29.237,8.866,38.333,3.064c-0.791-10.865-2.556-18.644-1.969-21.906c4.334-13.341,2.984-16.138,2.578-19.185
							c-0.794-5.952-6.701-11.14-10.077-13.314c0,0-2.528,0-3.149,0L136.493,134.044z"/>
					</g>
					<g>
						<polygon style="fill:#27DEBF;" points="128.525,162.762 133.323,170.176 130.499,169.346 						"/>
						<polygon style="opacity:0.2;" points="128.525,162.762 133.323,170.176 130.499,169.346 						"/>
					</g>
					<g id="XMLID_18576_">
						<path id="XMLID_18577_" style="fill:#263238;" d="M134.849,299.263v-1.043c0.207,1.589,2.318,6.486,5.21,9.124
							c2.299,2.097,5.435,4.519,6.233,6.857c0.83,2.432-3.705,3.394-6.677,3.097c-3.48-0.348-6.194-2.439-7.481-3.914
							c-1.892-2.169-1.858-3.65-2.741-4.844c-0.882-1.194-2.916-2.527-3.393-3.909c-0.262-0.759,0.049-2.422,0.417-3.826
							c0.338-1.289,0.704-2.706,1.144-2.585c0.001,0.157,0,0.795,0,0.795c0.529,0.586,1.993,1.168,3.644,1.232
							C132.27,300.288,134.857,300.077,134.849,299.263z"/>
					</g>
					<g id="XMLID_18572_">
						<path id="XMLID_18573_" style="fill:#FFA8A7;" d="M127.56,299.015c0.529,0.586,1.993,1.168,3.644,1.232
							c1.066,0.041,3.653-0.171,3.644-0.984v-1.043c0.208,1.589,2.318,6.486,5.21,9.124c0.551,0.502,1.149,1.023,1.752,1.557
							c1.222,1.362,0.875,2.551-1.998,2.798c-2.874,0.248-5.4-1.486-7.58-4.162C130.052,304.863,127.56,299.015,127.56,299.015z"/>
					</g>
					<g id="XMLID_18570_">
						<path id="XMLID_18571_" style="fill:#FFA8A7;" d="M154.296,102.527c1.849,1.093,4.135,5.744,3.909,15.494
							c-0.191,8.264-2.87,10.305-4.215,10.894c-1.345,0.588-3.939,0.23-6.461-0.19v4.959c0,0,3.485,4.048,3.266,6.322
							c-0.219,2.274-5.032,2.811-8.294,0.59c-3.261-2.222-6.008-6.552-6.008-6.552l0.057-11.403c0,0-1.484,1.442-4-0.759
							c-2.077-1.816-2.777-4.879-1.158-6.523c1.619-1.643,4.611-1.196,5.758,1.147c0,0,1.402-3.892,7.21-5.79
							C149.609,109.001,152.461,107.026,154.296,102.527z"/>
					</g>
					<g id="XMLID_18568_">
						<path id="XMLID_18569_" style="fill:#263238;" d="M148.979,115.945c0.03,0.595-0.411,1.1-0.984,1.128
							c-0.573,0.027-1.062-0.434-1.092-1.029c-0.03-0.595,0.41-1.1,0.984-1.127C148.46,114.889,148.949,115.35,148.979,115.945z"/>
					</g>
					<g id="XMLID_18566_">
						<path id="XMLID_18567_" style="fill:#F28F8F;" d="M149.256,122.95l2.414,0.77c-0.2,0.691-0.903,1.078-1.57,0.866
							C149.434,124.373,149.056,123.641,149.256,122.95z"/>
					</g>
					<g id="XMLID_18564_">
						<path id="XMLID_18565_" style="fill:#263238;" d="M157.499,112.754l-2.103-1.457c0.384-0.601,1.165-0.761,1.746-0.358
							C157.723,111.341,157.883,112.154,157.499,112.754z"/>
					</g>
					<g id="XMLID_18562_">
						<path id="XMLID_18563_" style="fill:#263238;" d="M145.955,113.523l2.103-1.457c-0.384-0.601-1.165-0.761-1.746-0.358
							C145.731,112.11,145.571,112.923,145.955,113.523z"/>
					</g>
					<g id="XMLID_18560_">
						<path id="XMLID_18561_" style="fill:#263238;" d="M157.014,115.194c0.03,0.595-0.41,1.1-0.984,1.127
							c-0.573,0.027-1.062-0.433-1.092-1.029c-0.03-0.595,0.411-1.1,0.984-1.127C156.496,114.137,156.985,114.598,157.014,115.194z"
							/>
					</g>
					<g id="XMLID_18558_">
						<polygon id="XMLID_18559_" style="fill:#F28F8F;" points="152.112,114.599 152.277,120.854 155.57,119.834 						"/>
					</g>
					<g id="XMLID_18556_">
						<path id="XMLID_18557_" style="fill:#F28F8F;" d="M147.53,128.725c-2.658-0.349-8.125-1.919-8.977-4.081
							c0,0,0.284,1.358,1.917,2.758c1.633,1.4,7.06,2.977,7.06,2.977V128.725z"/>
					</g>
				</g>
			</g>
		</g>
		<g id="XMLID_18377_">
			<path id="XMLID_18417_" style="fill:#FFA8A7;" d="M132.239,139.206c1.961,2.892,14.013,27.234,14.013,27.234
				s13.782-1.044,20.898-1.8c2.242-0.238,1.741-2.641,2.641-5.02c0.9-2.379,2.051-1.816,2.051-1.816l0,3.027
				c-0.044,1.277,2.669,3.522,4.479,3.488c4.685-0.089,9.411-4.743,9.598-0.876c0.119,2.467-0.959,6.209-3.127,7.212
				c-6.065,2.806-9.301,1.921-13.337,2.206c-3.111,0.219-20.978,2.895-25.223,3.075c-2.245,0.095-3.867-0.341-5.809-3.075
				c-1.942-2.734-13.502-24.636-13.502-24.636c-4.45-6.326-1.897-11.649,1.404-12.78
				C128.394,134.737,130.278,136.314,132.239,139.206z"/>
		</g>
	</g>
</g>
</svg>
