<svg xmlns="http://www.w3.org/2000/svg" xmlns:xlink="http://www.w3.org/1999/xlink" width="1080" zoomAndPan="magnify" viewBox="0 0 810 809.999993" height="1080" preserveAspectRatio="xMidYMid meet" version="1.0"><defs><clipPath id="61c9f6d3f5"><path d="M 0 601 L 801 601 L 801 810 L 0 810 Z M 0 601 " clip-rule="nonzero"/></clipPath><clipPath id="87a2701a48"><path d="M 34.875 594.90625 L 806.691406 779.746094 L 748.632812 1022.179688 L -23.183594 837.34375 Z M 34.875 594.90625 " clip-rule="nonzero"/></clipPath><clipPath id="6ed1e7fd05"><path d="M 718.324219 1014.921875 L 6.996094 844.570312 C -9.632812 840.585938 -19.941406 823.792969 -15.957031 807.164062 L 27.648438 625.085938 C 31.628906 608.457031 48.425781 598.152344 65.054688 602.132812 L 776.386719 772.488281 C 793.015625 776.46875 803.320312 793.265625 799.335938 809.894531 L 755.734375 991.972656 C 751.75 1008.601562 734.957031 1018.90625 718.324219 1014.921875 Z M 718.324219 1014.921875 " clip-rule="nonzero"/></clipPath><clipPath id="c7ba9839ea"><path d="M 9 603 L 810 603 L 810 810 L 9 810 Z M 9 603 " clip-rule="nonzero"/></clipPath><clipPath id="7670cfefa4"><path d="M 1.609375 848.164062 L 753.742188 594.859375 L 833.308594 831.113281 L 81.175781 1084.417969 Z M 1.609375 848.164062 " clip-rule="nonzero"/></clipPath><clipPath id="b66ecdc648"><path d="M 803.773438 841.0625 L 110.585938 1074.515625 C 94.378906 1079.972656 76.730469 1071.214844 71.269531 1055.007812 L 11.515625 877.574219 C 6.058594 861.371094 14.816406 843.71875 31.019531 838.261719 L 724.210938 604.808594 C 740.414062 599.351562 758.066406 608.109375 763.523438 624.3125 L 823.28125 801.746094 C 828.738281 817.953125 819.980469 835.601562 803.773438 841.0625 Z M 803.773438 841.0625 " clip-rule="nonzero"/></clipPath></defs><g clip-path="url(#61c9f6d3f5)"><g clip-path="url(#87a2701a48)"><g clip-path="url(#6ed1e7fd05)"><path fill="#29638f" d="M 34.875 594.90625 L 806.691406 779.746094 L 748.632812 1022.179688 L -23.183594 837.34375 Z M 34.875 594.90625 " fill-opacity="1" fill-rule="nonzero"/></g></g></g><g clip-path="url(#c7ba9839ea)"><g clip-path="url(#7670cfefa4)"><g clip-path="url(#b66ecdc648)"><path fill="#29638f" d="M 1.609375 848.164062 L 753.742188 594.859375 L 833.308594 831.113281 L 81.175781 1084.417969 Z M 1.609375 848.164062 " fill-opacity="1" fill-rule="nonzero"/></g></g></g></svg>