<svg xmlns="http://www.w3.org/2000/svg" xmlns:xlink="http://www.w3.org/1999/xlink" width="6912" zoomAndPan="magnify" viewBox="0 0 5184 2592.000001" height="3456" preserveAspectRatio="xMidYMid meet" version="1.0"><defs><clipPath id="a279da6b09"><path d="M 1 1169 L 5117 1169 L 5117 2591 L 1 2591 Z M 1 1169 " clip-rule="nonzero"/></clipPath><clipPath id="2bae1c12a0"><path d="M 228.019531 1129.101562 L 5157.621094 2309.667969 L 4786.796875 3858.105469 L -142.808594 2677.542969 Z M 228.019531 1129.101562 " clip-rule="nonzero"/></clipPath><clipPath id="549ce1bf98"><path d="M 4593.21875 3811.75 L 49.949219 2723.703125 C -56.265625 2698.265625 -122.082031 2590.996094 -96.644531 2484.785156 L 181.855469 1321.859375 C 207.292969 1215.644531 314.5625 1149.828125 420.777344 1175.265625 L 4964.046875 2263.308594 C 5070.261719 2288.746094 5136.078125 2396.015625 5110.640625 2502.230469 L 4832.140625 3665.152344 C 4806.703125 3771.367188 4699.433594 3837.183594 4593.21875 3811.75 Z M 4593.21875 3811.75 " clip-rule="nonzero"/></clipPath><clipPath id="6d822e7593"><path d="M 113 1181 L 5183 1181 L 5183 2591 L 113 2591 Z M 113 1181 " clip-rule="nonzero"/></clipPath><clipPath id="8559378bdf"><path d="M 60.523438 2746.6875 L 4864.402344 1128.832031 L 5372.589844 2637.78125 L 568.707031 4255.636719 Z M 60.523438 2746.6875 " clip-rule="nonzero"/></clipPath><clipPath id="8e6284b1c0"><path d="M 5183.949219 2701.3125 L 756.550781 4192.375 C 653.042969 4227.234375 540.304688 4171.300781 505.445312 4067.796875 L 123.785156 2934.53125 C 88.925781 2831.027344 144.859375 2718.285156 248.363281 2683.425781 L 4675.761719 1192.363281 C 4779.269531 1157.503906 4892.007812 1213.4375 4926.867188 1316.941406 L 5308.53125 2450.207031 C 5343.386719 2553.710938 5287.453125 2666.453125 5183.949219 2701.3125 Z M 5183.949219 2701.3125 " clip-rule="nonzero"/></clipPath></defs><g clip-path="url(#a279da6b09)"><g clip-path="url(#2bae1c12a0)"><g clip-path="url(#549ce1bf98)"><path fill="#29638f" d="M 228.019531 1129.101562 L 5157.621094 2309.667969 L 4786.792969 3858.105469 L -142.808594 2677.542969 Z M 228.019531 1129.101562 " fill-opacity="1" fill-rule="nonzero"/></g></g></g><g clip-path="url(#6d822e7593)"><g clip-path="url(#8559378bdf)"><g clip-path="url(#8e6284b1c0)"><path fill="#29638f" d="M 60.523438 2746.6875 L 4864.402344 1128.832031 L 5372.589844 2637.78125 L 568.707031 4255.636719 Z M 60.523438 2746.6875 " fill-opacity="1" fill-rule="nonzero"/></g></g></g></svg>